<?xml version="1.0" encoding="utf-8"?>
<!-- Generator: Adobe Illustrator 22.0.0, SVG Export Plug-In . SVG Version: 6.00 Build 0)  -->
<svg version="1.1" xmlns="http://www.w3.org/2000/svg" xmlns:xlink="http://www.w3.org/1999/xlink" x="0px" y="0px"
	 viewBox="0 0 228.8 44.3" style="enable-background:new 0 0 228.8 44.3;" xml:space="preserve">
<style type="text/css">
	.st0{fill:#0094D4;}
	.st1{fill:#FFFFFF;}
	.st2{fill:#231F20;}
	.st3{fill:#FFC10E;}
	.st4{fill:#2DA34A;}
	.st5{fill:#EE4023;}
	.st6{fill:#FBBB80;}
</style>
<g id="secModernizacion">
	<g>
		<path class="st0" d="M36.8,24.2h4.4c2.6,0,4.2,1.5,4.2,3.7v0c0,2.5-2,3.8-4.4,3.8h-2.2v3.6h-2V24.2z M41,30c1.5,0,2.4-0.8,2.4-2v0
			c0-1.3-0.9-2-2.4-2h-2.3v4H41z"/>
		<path class="st0" d="M47.1,26.9H49v1.9c0.5-1.3,1.5-2.1,3-2v2h-0.1c-1.7,0-2.9,1.1-2.9,3.3v3.2h-1.9V26.9z"/>
		<path class="st0" d="M53,31.1L53,31.1c0-2.4,1.7-4.4,4.1-4.4c2.7,0,4,2.1,4,4.5c0,0.2,0,0.3,0,0.5h-6.2c0.2,1.4,1.2,2.1,2.4,2.1
			c0.9,0,1.6-0.3,2.3-1l1.1,1c-0.8,1-1.9,1.6-3.4,1.6C54.9,35.5,53,33.7,53,31.1 M59.2,30.5c-0.1-1.2-0.9-2.2-2.1-2.2
			c-1.2,0-2,0.9-2.2,2.2H59.2z"/>
		<path class="st0" d="M62.2,34.2l0.9-1.3c0.9,0.7,1.9,1,2.7,1c0.8,0,1.3-0.3,1.3-0.9v0c0-0.7-0.9-0.9-1.9-1.2
			c-1.2-0.3-2.6-0.9-2.6-2.5v0c0-1.6,1.3-2.6,3-2.6c1,0,2.2,0.4,3.1,1l-0.8,1.4c-0.8-0.5-1.7-0.8-2.4-0.8c-0.7,0-1.2,0.3-1.2,0.8v0
			c0,0.6,0.9,0.9,1.9,1.2c1.2,0.4,2.6,0.9,2.6,2.4v0c0,1.8-1.4,2.6-3.1,2.6C64.6,35.5,63.3,35,62.2,34.2"/>
		<path class="st0" d="M70.7,23.8h2.1v1.8h-2.1V23.8z M70.8,26.9h1.9v8.4h-1.9V26.9z"/>
		<path class="st0" d="M74.6,31.1L74.6,31.1c0-2.8,1.9-4.4,3.9-4.4c1.4,0,2.3,0.7,2.9,1.5v-4.5h1.9v11.6h-1.9v-1.4
			c-0.6,0.9-1.5,1.6-2.9,1.6C76.6,35.5,74.6,33.9,74.6,31.1 M81.4,31.1L81.4,31.1c0-1.7-1.1-2.7-2.4-2.7c-1.3,0-2.4,1-2.4,2.7v0
			c0,1.6,1.1,2.7,2.4,2.7C80.3,33.8,81.4,32.7,81.4,31.1"/>
		<path class="st0" d="M85.1,31.1L85.1,31.1c0-2.4,1.7-4.4,4.1-4.4c2.7,0,4,2.1,4,4.5c0,0.2,0,0.3,0,0.5H87c0.2,1.4,1.2,2.1,2.4,2.1
			c0.9,0,1.6-0.3,2.3-1l1.1,1c-0.8,1-1.9,1.6-3.4,1.6C87,35.5,85.1,33.7,85.1,31.1 M91.3,30.5c-0.1-1.2-0.9-2.2-2.1-2.2
			c-1.2,0-2,0.9-2.2,2.2H91.3z"/>
		<path class="st0" d="M95,26.9h1.9v1.3c0.5-0.8,1.3-1.5,2.6-1.5c1.9,0,3,1.3,3,3.2v5.3h-1.9v-4.8c0-1.3-0.7-2-1.8-2
			c-1.1,0-1.9,0.8-1.9,2.1v4.7H95V26.9z"/>
		<path class="st0" d="M104.2,31.2L104.2,31.2c0-2.4,1.8-4.4,4.4-4.4c1.6,0,2.6,0.6,3.4,1.4l-1.2,1.3c-0.6-0.6-1.2-1-2.2-1
			c-1.4,0-2.4,1.2-2.4,2.7v0c0,1.5,1,2.7,2.5,2.7c0.9,0,1.6-0.4,2.2-1l1.2,1.1c-0.8,0.9-1.8,1.6-3.4,1.6
			C106.1,35.5,104.2,33.5,104.2,31.2"/>
		<path class="st0" d="M113.6,23.8h2.1v1.8h-2.1V23.8z M113.7,26.9h1.9v8.4h-1.9V26.9z"/>
		<path class="st0" d="M123.1,35.3v-1c-0.6,0.7-1.4,1.2-2.7,1.2c-1.6,0-3-0.9-3-2.6v0c0-1.9,1.4-2.7,3.4-2.7c1,0,1.7,0.1,2.3,0.3
			v-0.2c0-1.2-0.7-1.8-2.1-1.8c-0.9,0-1.6,0.2-2.4,0.5l-0.5-1.5c0.9-0.4,1.8-0.7,3.2-0.7c2.5,0,3.7,1.3,3.7,3.5v5H123.1z
			 M123.2,31.8c-0.5-0.2-1.2-0.3-1.9-0.3c-1.2,0-1.9,0.5-1.9,1.3v0c0,0.8,0.7,1.2,1.6,1.2c1.3,0,2.2-0.7,2.2-1.8V31.8z"/>
		<path class="st0" d="M131.3,31.1L131.3,31.1c0-2.8,1.9-4.4,3.9-4.4c1.4,0,2.3,0.7,2.9,1.5v-4.5h1.9v11.6h-1.9v-1.4
			c-0.6,0.9-1.5,1.6-2.9,1.6C133.2,35.5,131.3,33.9,131.3,31.1 M138.1,31.1L138.1,31.1c0-1.7-1.1-2.7-2.4-2.7c-1.3,0-2.4,1-2.4,2.7
			v0c0,1.6,1.1,2.7,2.4,2.7C137,33.8,138.1,32.7,138.1,31.1"/>
		<path class="st0" d="M141.8,31.1L141.8,31.1c0-2.4,1.7-4.4,4.1-4.4c2.7,0,4,2.1,4,4.5c0,0.2,0,0.3,0,0.5h-6.2
			c0.2,1.4,1.2,2.1,2.4,2.1c0.9,0,1.6-0.3,2.3-1l1.1,1c-0.8,1-1.9,1.6-3.4,1.6C143.6,35.5,141.8,33.7,141.8,31.1 M148,30.5
			c-0.1-1.2-0.9-2.2-2.1-2.2c-1.2,0-2,0.9-2.2,2.2H148z"/>
		<rect x="156.4" y="23.7" class="st0" width="1.9" height="11.6"/>
		<path class="st0" d="M165.8,35.3v-1c-0.6,0.7-1.4,1.2-2.7,1.2c-1.6,0-3-0.9-3-2.6v0c0-1.9,1.4-2.7,3.4-2.7c1,0,1.7,0.1,2.3,0.3
			v-0.2c0-1.2-0.7-1.8-2.1-1.8c-0.9,0-1.6,0.2-2.4,0.5l-0.5-1.5c0.9-0.4,1.8-0.7,3.2-0.7c2.5,0,3.7,1.3,3.7,3.5v5H165.8z
			 M165.8,31.8c-0.5-0.2-1.2-0.3-1.9-0.3c-1.2,0-1.9,0.5-1.9,1.3v0c0,0.8,0.7,1.2,1.6,1.2c1.3,0,2.2-0.7,2.2-1.8V31.8z"/>
		<polygon class="st0" points="174.7,24.2 176.5,24.2 182.4,31.9 182.4,24.2 184.3,24.2 184.3,35.3 182.7,35.3 176.6,27.4 
			176.6,35.3 174.7,35.3 		"/>
		<path class="st0" d="M192,35.3v-1c-0.6,0.7-1.4,1.2-2.7,1.2c-1.6,0-3-0.9-3-2.6v0c0-1.9,1.4-2.7,3.4-2.7c1,0,1.7,0.1,2.3,0.3v-0.2
			c0-1.2-0.7-1.8-2.1-1.8c-0.9,0-1.6,0.2-2.4,0.5l-0.5-1.5c0.9-0.4,1.8-0.7,3.2-0.7c2.5,0,3.7,1.3,3.7,3.5v5H192z M192,31.8
			c-0.5-0.2-1.2-0.3-1.9-0.3c-1.2,0-1.9,0.5-1.9,1.3v0c0,0.8,0.7,1.2,1.6,1.2c1.3,0,2.2-0.7,2.2-1.8V31.8z"/>
		<path class="st0" d="M195.5,31.2L195.5,31.2c0-2.4,1.8-4.4,4.4-4.4c1.6,0,2.6,0.6,3.4,1.4l-1.2,1.3c-0.6-0.6-1.2-1-2.2-1
			c-1.4,0-2.4,1.2-2.4,2.7v0c0,1.5,1,2.7,2.5,2.7c0.9,0,1.6-0.4,2.2-1l1.2,1.1c-0.8,0.9-1.8,1.6-3.4,1.6
			C197.4,35.5,195.5,33.5,195.5,31.2"/>
		<path class="st0" d="M204.9,23.8h2.1v1.8h-2.1V23.8z M205,26.9h1.9v8.4H205V26.9z"/>
		<path class="st0" d="M208.8,31.2L208.8,31.2c0-2.4,1.9-4.4,4.5-4.4c2.6,0,4.5,2,4.5,4.4v0c0,2.4-1.9,4.4-4.5,4.4
			C210.7,35.5,208.8,33.5,208.8,31.2 M215.9,31.2L215.9,31.2c0-1.5-1.1-2.7-2.6-2.7c-1.5,0-2.5,1.2-2.5,2.7v0c0,1.5,1.1,2.7,2.6,2.7
			C214.9,33.8,215.9,32.6,215.9,31.2 M214.2,23.2l1.7,0.8l-2,1.8h-1.4L214.2,23.2z"/>
		<path class="st0" d="M219.6,26.9h1.9v1.3c0.5-0.8,1.3-1.5,2.6-1.5c1.9,0,3,1.3,3,3.2v5.3h-1.9v-4.8c0-1.3-0.7-2-1.8-2
			c-1.1,0-1.9,0.8-1.9,2.1v4.7h-1.9V26.9z"/>
		<path class="st0" d="M14.4,21.9h-2.3c-0.5,0-0.8-0.2-0.9-0.4C11.1,21.4,11,21.2,11,21c0,0,0,0,0-0.1c0-0.2,0-0.4,0-0.7
			c0.3-1.5,0.9-2.5,1.4-3.2c-0.1,0-0.1,0-0.2-0.1c-0.3-0.2-0.5-0.5-0.4-1c0.1-0.5,0.6-1,0.6-1.1c0.8-0.9,2-1,2.1-1
			c0.2,0,1.7-0.1,2.6,1.6c1,2,1.2,3.6,1.4,4.9l0,0.1c0,0.2,0,0.4,0,0.6c0,0,0,0,0,0.1c-0.1,0.2-0.1,0.3-0.2,0.4
			c-0.2,0.2-0.5,0.4-0.9,0.4c-0.2,0-0.3,0-0.4,0c0,0-0.1,0-0.1,0h-1.8v3.3h10.3c0-1.9-0.3-3.8-0.8-5.5c-0.5-1.7-1.3-3.2-2.3-4.5
			c-1-1.3-2.1-2.3-3.4-3c-1.3-0.7-2.7-1.1-4.1-1.1c-1.4,0-2.8,0.4-4.1,1.1c-1.3,0.7-2.4,1.7-3.4,3c-1,1.3-1.8,2.8-2.3,4.5
			c-0.6,1.7-0.8,3.6-0.8,5.5h10.3V21.9z"/>
		<path class="st1" d="M4.1,25.2c0,1.5,0.2,2.9,0.5,4.2c4.6-0.5,7.4-1.1,8.2-1.6c0.6-0.4,1-0.6,1.6-0.6v-2H4.1z"/>
		<path class="st1" d="M15.1,27.3c0.4,0.1,0.7,0.2,1.1,0.4c0,0,0.1,0,0.1,0c0.6,0,1.1,0.2,1.8,0.4c0.2,0.1,0.4,0.1,0.6,0.2
			c0.1,0,3.4,1.1,6.2,1.2c0.3-1.4,0.5-2.8,0.5-4.3H15.1V27.3z"/>
		<path class="st2" d="M14.1,9.2L14.1,9.2L14.1,9.2z"/>
		<path class="st2" d="M12,9.6"/>
		<path class="st2" d="M12,9.6L12,9.6L12,9.6z"/>
		<path class="st1" d="M19.3,31.8c0,0.1-0.1,0.2-0.2,0.3c-0.2,0.2-0.4,0.3-0.7,0.3c0,0.1-0.1,0.2-0.2,0.3c-0.2,0.2-0.4,0.4-0.9,0.4
			c0,0.1-0.1,0.2-0.2,0.2c-0.2,0.2-0.5,0.3-0.9,0.3c-0.1,0.1-0.2,0.1-0.4,0.2c-0.2,0.1-0.5,0.1-0.8,0.1v2.7c0,0.2-0.2,0.3-0.3,0.3
			c-0.2,0-0.3-0.2-0.3-0.3v-2.6c-0.1,0.1-0.3,0.1-0.4,0.1c-0.1,0-0.1,0-0.2,0c-0.2,0-0.4-0.1-0.5-0.3c-0.2,0-0.6,0.1-0.9-0.1
			c-0.1-0.1-0.2-0.2-0.3-0.3c-0.1,0-0.2,0-0.3-0.1c-0.3-0.1-0.5-0.3-0.6-0.5c-0.1,0-0.2,0-0.2,0c-0.3,0-0.6-0.1-0.7-0.4
			c0-0.1,0-0.1-0.1-0.2c-1.5,0.8-3.2,1.5-3.9,1.8c0.3,0.5,0.6,1,1,1.4c1,1.3,2.1,2.3,3.4,3c0.6,0.3,1.2,0.6,1.8,0.8
			c0.1-0.1,0.2-0.2,0.3-0.3c0.6-0.4,1.7-0.1,2,0c0.3-0.1,1.4-0.4,2,0c0.1,0.1,0.2,0.2,0.3,0.3c0.6-0.2,1.2-0.4,1.8-0.8
			c1.3-0.7,2.4-1.7,3.4-3c0.3-0.4,0.6-0.9,0.9-1.3C22.4,33.5,20.5,32.7,19.3,31.8"/>
		<path class="st0" d="M15.7,41.1c0-0.1,0-0.2,0-0.2c0-0.1,0-0.1,0-0.2c0.3-0.1,0.9-0.2,1.2-0.6c0.2-0.2,0.3-0.5,0.2-0.8
			c0-0.3-0.2-0.5-0.4-0.6c-0.6-0.4-1.7-0.1-2,0c-0.3-0.1-1.4-0.4-2,0c-0.2,0.1-0.3,0.3-0.4,0.6c0,0.3,0,0.6,0.2,0.8
			c0.3,0.4,0.9,0.6,1.2,0.6c0,0.1,0,0.1,0,0.2c0,0.1,0,0.2,0,0.2c-0.3,0.2-1.1,1-2.2,1.1c0,0.1,0.1,0.2,0.3,0.4
			c1-0.2,1.8-0.8,2.1-1.1c0,0,0.1,0.1,0.1,0.1c-0.1,0.3-0.4,1-1.7,1.4c0.2,0.1,0.5,0.2,0.8,0.2c0.9-0.4,1.2-1,1.3-1.4
			c0.1,0,0.1,0,0.2,0c0.1,0,0.1,0,0.2,0c0.1,0.4,0.4,1,1.3,1.4c0.3,0,0.6-0.1,0.8-0.2c-1.3-0.3-1.6-1.1-1.7-1.3c0,0,0.1-0.1,0.1-0.1
			c0.3,0.3,1.1,0.9,2.1,1.1c0.2-0.2,0.3-0.4,0.3-0.4C16.8,42.1,16,41.4,15.7,41.1"/>
		<path class="st1" d="M16.6,39.1c0.1,0.1,0.1,0.1,0.2,0.3c0,0.2,0,0.3-0.1,0.4c-0.1,0.2-0.4,0.3-0.6,0.4c0.1-0.2,0.1-0.5,0-0.7
			c-0.1-0.2-0.2-0.4-0.4-0.5C16.1,38.9,16.4,38.9,16.6,39.1"/>
		<path class="st1" d="M14,39.6c0.2-0.5,0.8-0.5,0.8-0.5c0,0,0.2,0,0.4,0.1c0.2,0.1,0.4,0.2,0.5,0.4c0.1,0.2-0.1,0.4-0.2,0.6
			c-0.2-0.2-0.4-0.2-0.6-0.2c-0.2,0-0.5,0.1-0.6,0.2C14,40,13.9,39.8,14,39.6"/>
		<path class="st1" d="M13.6,40.1c-0.2-0.1-0.5-0.2-0.6-0.4c-0.1-0.1-0.1-0.3-0.1-0.4c0-0.1,0.1-0.2,0.2-0.3
			c0.1-0.1,0.3-0.1,0.6-0.1c0.1,0,0.2,0,0.3,0c-0.2,0.1-0.3,0.3-0.4,0.5C13.4,39.7,13.5,39.9,13.6,40.1"/>
		<path class="st1" d="M14.3,40.9c0-0.3,0.2-0.5,0.5-0.5c0.3,0,0.5,0.2,0.5,0.5c0,0.3-0.2,0.5-0.5,0.5
			C14.5,41.4,14.3,41.2,14.3,40.9"/>
		<path class="st1" d="M17.6,42.6c-1-0.2-1.8-0.8-2.1-1.1c0,0-0.1,0.1-0.1,0.1c0.1,0.3,0.4,1,1.7,1.3C17.3,42.9,17.5,42.8,17.6,42.6
			"/>
		<path class="st1" d="M14.1,41.6c-0.3,0.3-1.1,0.9-2.1,1.1c0.1,0.1,0.3,0.3,0.6,0.4c1.3-0.3,1.6-1.1,1.7-1.4
			C14.1,41.6,14.1,41.6,14.1,41.6"/>
		<path class="st2" d="M27.7,27.9c0-0.1,0-0.1-0.1-0.2c0,0-0.1-0.1-0.2-0.1c0-0.1,0.1-0.2,0.1-0.3c0.2-0.4,0.2-0.9,0.3-1.5
			c0-0.1,0-0.1-0.1-0.2c0,0-0.1,0-0.2,0c0-0.1,0.1-0.2,0.1-0.3c0.1-0.5,0.2-1,0.1-1.5c0-0.1-0.1-0.1-0.1-0.2c0,0-0.1,0-0.2,0
			c0-0.1,0.1-0.2,0.1-0.3c0.1-0.5,0.1-1,0-1.5c0-0.1-0.1-0.1-0.1-0.2c0,0-0.1,0-0.1,0c0-0.1,0-0.2,0-0.2c0.1-0.5,0-1-0.1-1.5
			c0-0.1-0.1-0.1-0.1-0.2c-0.1,0-0.1,0-0.2,0v0c0-0.1,0-0.2,0-0.4c0-0.5-0.1-1-0.3-1.5c0-0.1-0.1-0.1-0.2-0.1c-0.1,0-0.1,0-0.2,0
			c0-0.1,0-0.2,0-0.3C26.1,17,26,16.5,25.7,16c0-0.1-0.1-0.1-0.2-0.1c-0.1,0-0.1,0-0.2,0.1c0-0.1,0-0.2-0.1-0.3
			c-0.1-0.5-0.3-0.9-0.6-1.4c0-0.1-0.1-0.1-0.2-0.1c-0.1,0-0.1,0-0.2,0.1c0-0.1-0.1-0.2-0.1-0.4c-0.2-0.4-0.5-0.9-0.9-1.3
			c-0.1-0.1-0.1-0.1-0.2-0.1c-0.1,0-0.1,0-0.1,0.1c-0.1-0.1-0.1-0.2-0.2-0.4c-0.3-0.4-0.6-0.8-1-1.1c-0.1,0-0.1-0.1-0.2,0
			c-0.1,0-0.1,0.1-0.1,0.1c-0.3-0.4-0.7-0.7-1.2-0.9c0.1,0,0.2,0,0.3,0c0.6,0,1-0.1,1.1-0.1c0.1,0,0.2-0.2,0.2-0.3
			c0-0.1-0.1-0.2-0.3-0.2c-0.7,0-0.9-0.2-1.2-0.3c-0.1,0-0.1-0.1-0.2-0.1l1.6-0.2c0.1,0,0.2-0.1,0.2-0.3c0-0.1-0.1-0.3-0.2-0.3
			L20,8.3c0.2,0,0.4-0.1,0.6-0.2c0.6-0.2,0.9-0.5,0.9-0.5c0.1-0.1,0.1-0.2,0.1-0.4c-0.1-0.1-0.2-0.2-0.3-0.1
			c-0.6,0.2-0.9,0.2-1.3,0.2c-0.1,0-0.1,0-0.2,0l1.4-0.8c0.1-0.1,0.2-0.2,0.1-0.3C21.2,6,21.1,5.9,21,6l-1.5,0.4
			c0.1-0.1,0.3-0.3,0.5-0.4c0.5-0.4,0.7-0.8,0.7-0.8c0.1-0.1,0-0.3-0.1-0.4c-0.1-0.1-0.3-0.1-0.4,0c-0.5,0.5-0.8,0.5-1.1,0.6
			c-0.1,0-0.1,0-0.2,0.1l0.9-1.3c0.1-0.1,0.1-0.3,0-0.4c-0.1-0.1-0.3-0.1-0.4,0l-1.3,0.9c0.1-0.2,0.2-0.4,0.3-0.6
			c0.3-0.6,0.3-1,0.3-1c0-0.1-0.1-0.3-0.2-0.3c-0.1,0-0.3,0-0.3,0.2c-0.3,0.6-0.5,0.8-0.8,1c-0.1,0-0.1,0.1-0.2,0.1l0.4-1.5
			c0-0.1,0-0.3-0.2-0.3c-0.1-0.1-0.3,0-0.3,0.1l-0.8,1.4c0-0.2,0-0.4,0.1-0.6c0-0.6-0.1-1-0.1-1.1c0-0.1-0.2-0.2-0.3-0.2
			c-0.1,0-0.2,0.1-0.2,0.3c0,0.7-0.2,0.9-0.3,1.2c0,0.1-0.1,0.1-0.1,0.2L15.1,2c0-0.1-0.1-0.2-0.3-0.2h0c-0.1,0-0.3,0.1-0.3,0.2
			l-0.2,1.6c0-0.2-0.1-0.4-0.2-0.6c-0.2-0.6-0.5-0.9-0.5-0.9c-0.1-0.1-0.2-0.1-0.4-0.1c-0.1,0.1-0.2,0.2-0.1,0.3
			c0.2,0.6,0.2,0.9,0.2,1.3c0,0.1,0,0.1,0,0.2l-0.8-1.4c-0.1-0.1-0.2-0.2-0.3-0.1c-0.1,0.1-0.2,0.2-0.2,0.3l0.4,1.5
			c-0.1-0.1-0.3-0.3-0.4-0.5C11.5,3.2,11.1,3,11.1,3C11,3,10.8,3,10.8,3.1c-0.1,0.1-0.1,0.3,0,0.4c0.5,0.5,0.5,0.8,0.6,1.1
			c0,0.1,0,0.1,0.1,0.2l-1.3-0.9c-0.1-0.1-0.3-0.1-0.4,0C9.7,4,9.7,4.1,9.8,4.2l0.9,1.3c-0.2-0.1-0.4-0.2-0.6-0.3
			c-0.6-0.3-1-0.3-1-0.3C9,4.9,8.9,4.9,8.9,5.1c0,0.1,0,0.3,0.2,0.3c0.6,0.3,0.8,0.5,1,0.8c0,0.1,0.1,0.1,0.1,0.2L8.6,6
			c-0.1,0-0.3,0-0.3,0.2c-0.1,0.1,0,0.3,0.1,0.3l1.4,0.8c-0.2,0-0.4,0-0.6-0.1c-0.6,0-1,0.1-1.1,0.1C8,7.4,7.9,7.5,7.9,7.6
			c0,0.1,0.1,0.2,0.3,0.2c0.7,0,0.9,0.2,1.2,0.3c0.1,0,0.1,0.1,0.2,0.1L8,8.6c-0.1,0-0.2,0.1-0.2,0.3C7.8,9,7.9,9.1,8,9.1l1.6,0.2
			C9.4,9.4,9.2,9.4,9,9.5C8.4,9.7,8,10,8,10c-0.1,0.1-0.1,0.2-0.1,0.4c0.1,0.1,0.2,0.2,0.3,0.1c0.4-0.1,0.6-0.2,0.8-0.2
			c-0.3,0.3-0.6,0.5-0.7,0.7c-0.1,0.1-0.1,0.2-0.2,0.2c0,0-0.1-0.1-0.1-0.1c-0.1,0-0.1,0-0.2,0c-0.4,0.3-0.8,0.7-1.1,1.1
			c-0.1,0.1-0.1,0.2-0.2,0.4c0-0.1-0.1-0.1-0.1-0.1c-0.1,0-0.1,0-0.2,0.1c-0.4,0.4-0.7,0.8-0.9,1.3c0,0.1-0.1,0.2-0.1,0.3
			c0,0-0.1-0.1-0.1-0.1c-0.1,0-0.1,0-0.2,0.1c-0.3,0.5-0.6,0.9-0.7,1.4c0,0.1-0.1,0.2-0.1,0.4c0-0.1-0.1-0.1-0.2-0.1
			c-0.1,0-0.1,0.1-0.2,0.1c-0.3,0.5-0.4,1-0.5,1.4c0,0.1,0,0.2,0,0.3c-0.1,0-0.1-0.1-0.2,0c-0.1,0-0.1,0.1-0.2,0.1
			c-0.2,0.5-0.3,1-0.3,1.5c0,0.1,0,0.2,0,0.3c-0.1,0-0.1,0-0.2,0c-0.1,0-0.1,0.1-0.1,0.2c-0.1,0.5-0.2,1.1-0.1,1.5
			c0,0.1,0,0.2,0,0.3c0,0-0.1,0-0.1,0c-0.1,0-0.1,0.1-0.1,0.2c-0.1,0.5-0.1,1.1,0,1.5c0,0.1,0,0.2,0.1,0.3c0,0-0.1,0-0.1,0
			c-0.1,0-0.1,0.1-0.1,0.2c-0.1,0.6-0.1,1.1,0,1.5c0,0.1,0,0.2,0.1,0.3c0,0-0.1,0-0.1,0c-0.1,0-0.1,0.1-0.1,0.2
			c0,0.6,0.1,1.1,0.2,1.5c0,0.1,0.1,0.3,0.2,0.4c0,0,0,0,0,0c-0.1,0-0.1,0-0.2,0.1c-0.1,0-0.1,0.1-0.1,0.2c0.1,0.6,0.2,1,0.5,1.5
			c0,0.1,0.1,0.2,0.1,0.2c0,0-0.1,0-0.1,0.1c-0.1,0.1-0.1,0.1-0.1,0.2c0.1,0.5,0.3,1,0.6,1.4C2.9,31.5,3,31.6,3,31.7
			c-0.1,0-0.1,0-0.2,0.1c0,0.1-0.1,0.1,0,0.2c0.2,0.5,0.4,1,0.7,1.3c0.1,0.1,0.1,0.2,0.2,0.2c-0.1,0-0.1,0.1-0.1,0.1
			c0,0.1,0,0.1,0,0.2c0.3,0.5,0.6,0.9,0.9,1.2c0.1,0.1,0.1,0.1,0.2,0.2c0,0-0.1,0.1-0.1,0.1c0,0.1,0,0.1,0,0.2
			c0.3,0.5,0.6,0.9,1,1.1C5.8,36.8,5.9,36.9,6,37c0,0,0,0,0,0c-0.1,0-0.1,0.1-0.1,0.2c0,0.1,0,0.1,0.1,0.2c0.4,0.4,0.8,0.7,1.2,0.9
			c0.3,0.2,0.7,0.3,1,0.4c0.3,0.1,0.6,0.1,0.8,0c0,0,0,0,0,0c0.7,0.5,1.4,0.9,2.2,1.2c0.6,0.3,1.3,0.5,1.9,0.6
			c0.1,0,0.3,0.1,0.4,0.1c-0.3-0.1-0.5-0.3-0.7-0.5c0,0-0.1-0.1-0.1-0.1c-0.4-0.1-0.9-0.3-1.3-0.5c-0.7-0.3-1.4-0.7-2.1-1.2
			c0,0,0,0,0,0c0-0.2,0-0.5-0.1-0.7c0.5,0.4,0.9,0.7,1.4,1c0.6,0.4,1.3,0.6,2,0.8c0,0,0-0.1,0-0.1c0-0.1,0-0.2,0.1-0.3
			c-0.6-0.2-1.2-0.4-1.8-0.8c-1.3-0.7-2.4-1.7-3.4-3c-0.3-0.5-0.7-0.9-1-1.4c0.8-0.3,2.4-1.1,3.9-1.8c0,0.1,0,0.1,0.1,0.2
			c0.1,0.3,0.5,0.4,0.7,0.4c0.1,0,0.2,0,0.2,0c0.1,0.2,0.3,0.4,0.6,0.5c0.1,0,0.2,0.1,0.3,0.1c0.1,0.1,0.1,0.2,0.3,0.3
			c0.3,0.2,0.7,0.2,0.9,0.1c0.1,0.2,0.3,0.3,0.5,0.3c0.1,0,0.1,0,0.2,0c0.2,0,0.3,0,0.4-0.1v2.6c0,0.2,0.2,0.3,0.3,0.3
			c0.2,0,0.3-0.2,0.3-0.3v-2.7c0.3,0.1,0.6,0,0.8-0.1c0.2-0.1,0.3-0.1,0.4-0.2c0.3,0.1,0.6,0,0.9-0.3c0.1-0.1,0.1-0.2,0.2-0.2
			c0.5,0,0.7-0.2,0.9-0.4c0.1-0.1,0.1-0.2,0.2-0.3c0.3,0,0.5-0.1,0.7-0.3c0.1-0.1,0.1-0.2,0.2-0.3c1.2,0.9,3,1.7,3.9,2.1
			c-0.3,0.5-0.6,0.9-0.9,1.3c-1,1.3-2.1,2.3-3.4,3c-0.6,0.3-1.2,0.6-1.8,0.8c0,0.1,0.1,0.2,0.1,0.3c0,0,0,0.1,0,0.1
			c0.7-0.2,1.3-0.5,2-0.8c0.5-0.3,1-0.6,1.4-1c-0.1,0.2-0.1,0.5-0.1,0.7c0,0,0,0,0,0c-0.2,0.2-0.7,0.5-1.5,0.9
			c-0.6,0.3-1.2,0.5-1.8,0.7c0,0-0.1,0-0.1,0c0,0,0,0.1-0.1,0.1c-0.2,0.2-0.5,0.4-0.8,0.5c0.3-0.1,0.7-0.1,1-0.2
			c0.6-0.2,1.3-0.4,1.9-0.7c0.8-0.4,1.4-0.8,1.6-1c0,0,0,0,0,0c0.2,0,0.5,0,0.8,0c0.3-0.1,0.6-0.2,1-0.4c0.4-0.2,0.8-0.5,1.2-0.9
			c0.1-0.1,0.1-0.1,0.1-0.2c0-0.1-0.1-0.1-0.1-0.2c0,0,0,0,0,0c0.1-0.1,0.2-0.2,0.4-0.2c0.4-0.3,0.7-0.7,1-1.1c0-0.1,0-0.1,0-0.2
			c0-0.1-0.1-0.1-0.1-0.1c0.1-0.1,0.2-0.1,0.2-0.2c0.3-0.3,0.6-0.7,0.9-1.2c0-0.1,0-0.1,0-0.2c0-0.1-0.1-0.1-0.2-0.1
			c0.1-0.1,0.2-0.2,0.2-0.2c0.3-0.4,0.5-0.8,0.7-1.3c0-0.1,0-0.1,0-0.2c0-0.1-0.1-0.1-0.2-0.1l0,0c0.1-0.1,0.1-0.2,0.2-0.3
			c0.3-0.4,0.5-0.9,0.6-1.4c0-0.1,0-0.1-0.1-0.2c0-0.1-0.1-0.1-0.2-0.1c0.1-0.1,0.1-0.2,0.2-0.3C27.5,29,27.6,28.5,27.7,27.9
			 M27.5,26.2C27.5,26.2,27.5,26.2,27.5,26.2c0,0.4-0.1,0.7-0.2,1c-0.1,0.3-0.3,0.6-0.5,0.8c-0.2,0.3-0.5,0.4-0.6,0.5c0,0,0,0,0,0
			c0,0,0,0,0,0c-0.3-0.4-0.5-0.9-0.4-1.5c0-0.2,0-0.4,0.1-0.6c0,0,0,0,0,0c0,0,0,0,0,0c0.3,0.3,0.4,0.8,0.4,0.8
			c0,0.1,0.1,0.1,0.1,0.1c0.1,0,0.1,0,0.2-0.1C26.8,26.7,27.2,26.4,27.5,26.2C27.4,26.2,27.4,26.2,27.5,26.2 M27.4,24.2
			C27.4,24.2,27.4,24.2,27.4,24.2C27.4,24.2,27.4,24.2,27.4,24.2c0,0.4,0,0.7-0.1,1.1c-0.1,0.3-0.2,0.6-0.4,0.9
			c-0.2,0.3-0.4,0.5-0.5,0.5c0,0,0,0,0,0s0,0,0,0c-0.5-0.6-0.6-1.5-0.6-2c0,0,0,0,0,0c0,0,0,0,0,0c0.3,0.3,0.5,0.7,0.5,0.7
			c0,0.1,0.1,0.1,0.2,0.1c0.1,0,0.1,0,0.1-0.1C26.9,24.8,27.2,24.4,27.4,24.2 M27.2,22.2C27.2,22.2,27.2,22.2,27.2,22.2
			C27.2,22.2,27.2,22.2,27.2,22.2c0.1,0.4,0.1,0.7,0,1.1c0,0.3-0.1,0.6-0.3,0.9c-0.2,0.3-0.4,0.5-0.5,0.6c0,0,0,0,0,0s0,0,0,0
			c-0.5-0.4-0.7-1.4-0.7-1.9c0,0,0,0,0,0c0,0,0,0,0,0c0.3,0.3,0.5,0.6,0.5,0.6c0,0.1,0.1,0.1,0.2,0.1c0.1,0,0.1-0.1,0.1-0.1
			C26.7,22.8,27,22.4,27.2,22.2 M26.9,20.3C26.9,20.3,26.9,20.3,26.9,20.3C26.9,20.3,26.9,20.3,26.9,20.3c0.1,0.4,0.1,0.7,0.1,1.1
			c0,0.3-0.1,0.6-0.3,0.9c-0.2,0.3-0.3,0.5-0.4,0.6c0,0,0,0,0,0c0,0,0,0,0,0c-0.4-0.4-0.7-0.9-0.8-1.3c0-0.2-0.1-0.4-0.1-0.6
			c0,0,0,0,0,0c0,0,0,0,0,0c0.3,0.3,0.6,0.6,0.6,0.6c0,0.1,0.1,0.1,0.2,0.1c0.1,0,0.1-0.1,0.1-0.1C26.4,20.9,26.7,20.5,26.9,20.3
			 M11.6,20.4C11.6,20.4,11.6,20.4,11.6,20.4c0.3-1.4,0.8-2.3,1.2-2.8c0.3-0.4,0.6-0.6,0.7-0.7c0,0,0.1-0.1,0.1-0.1
			c0.1-0.1,0.1-0.3,0-0.4c-0.1-0.1-0.3-0.2-0.4-0.1c0,0-0.1,0-0.1,0.1c-0.3,0.2-0.5,0.1-0.5,0.1c-0.1-0.1-0.1-0.2-0.1-0.3
			c0-0.3,0.4-0.7,0.5-0.8c0,0,0,0,0,0c0.6-0.8,1.7-0.8,1.7-0.8s0,0,0,0c0,0,0.3,0,0.7,0.1c0.6,0.2,1,0.6,1.3,1.1
			c0.4,0.8,0.7,1.6,0.9,2.4c-0.6-0.2-1-0.6-1-0.6c-0.1-0.1-0.3-0.1-0.4,0c-0.1,0.1-0.1,0.1-0.1,0.2c0,0.1,0,0.2,0.1,0.2
			c0,0,0.7,0.6,1.6,0.8c0.1,0.3,0.1,0.6,0.2,0.9c-0.3-0.1-0.6-0.2-0.9-0.3c-0.2,0-0.4-0.1-0.5-0.1c-0.6-0.2-1.1-0.6-1.1-0.6
			c-0.1-0.1-0.3-0.1-0.4,0.1c-0.1,0.1-0.1,0.3,0.1,0.4c0,0,0.6,0.5,1.3,0.7c0.2,0.1,0.4,0.1,0.6,0.2c0.7,0.2,1.1,0.3,1.1,0.7
			c0,0.1-0.1,0.1-0.1,0.2c-0.2,0.3-0.8,0.3-0.9,0.3c0,0,0,0,0,0h-0.7c-0.1,0-0.9,0-1.5-0.4C13.2,19.9,12.5,20,11.6,20.4 M14.3,21.3
			h-2.1c-0.2,0-0.4-0.1-0.5-0.2c0,0,0-0.1-0.1-0.1C12.5,20.7,13,20.5,14.3,21.3 M15.1,25.2v-3.3h1.8c0,0,0,0,0.1,0
			c0.1,0,0.2,0,0.4,0c0.4-0.1,0.7-0.2,0.9-0.4c0.1-0.1,0.2-0.2,0.2-0.4c0,0,0,0,0-0.1c0-0.2,0.1-0.3,0-0.6l0-0.1
			c-0.2-1.3-0.4-2.9-1.4-4.9c-0.8-1.6-2.4-1.6-2.6-1.6c-0.1,0-1.3,0.1-2.1,1c-0.1,0.1-0.6,0.6-0.6,1.1c-0.1,0.4,0.1,0.8,0.4,1
			c0.1,0,0.1,0.1,0.2,0.1c-0.5,0.6-1.1,1.6-1.4,3.2c-0.1,0.3-0.1,0.5,0,0.7c0,0,0,0,0,0.1c0,0.2,0.1,0.4,0.2,0.6
			c0.1,0.2,0.4,0.4,0.9,0.4h2.3v3.3v2c-0.6,0-1.1,0.2-1.6,0.6c-0.8,0.5-3.6,1.1-8.2,1.6c-0.3-1.4-0.5-2.8-0.5-4.2
			c0-1.9,0.3-3.8,0.8-5.5c0.5-1.7,1.3-3.2,2.3-4.5c1-1.3,2.1-2.3,3.4-3c1.3-0.7,2.7-1.1,4.1-1.1c1.4,0,2.8,0.4,4.1,1.1
			c1.3,0.7,2.4,1.7,3.4,3c1,1.3,1.8,2.8,2.3,4.5c0.6,1.7,0.8,3.6,0.8,5.5c0,1.5-0.2,2.9-0.5,4.3c-2.8-0.2-6.1-1.2-6.2-1.2
			c-0.2-0.1-0.5-0.2-0.6-0.2c-0.7-0.3-1.2-0.4-1.8-0.4c0,0-0.1,0-0.1,0c-0.3-0.2-0.6-0.3-1.1-0.4V25.2z M19.5,10.4
			c-0.2,0.1-0.4,0.2-0.7,0.2c-0.2,0-0.4,0.1-0.5,0.1c-0.4,0-0.7-0.1-1-0.3c0,0,0,0,0,0c0,0,0,0,0,0c0.1-0.1,0.3-0.2,0.6-0.2
			c0.3-0.1,0.6-0.1,0.9,0C19,10.1,19.2,10.2,19.5,10.4C19.5,10.4,19.5,10.4,19.5,10.4C19.5,10.4,19.5,10.4,19.5,10.4 M19.9,11.5
			C19.9,11.5,19.9,11.5,19.9,11.5C19.9,11.6,19.9,11.6,19.9,11.5c-0.1,0.1-0.3,0.1-0.5,0.1c0,0-0.1,0-0.1,0c-0.5,0-0.9-0.2-1.4-0.5
			c0,0,0,0,0,0c0,0,0,0,0,0c0.2-0.1,0.4-0.1,0.6-0.1C19.1,11,19.5,11.2,19.9,11.5 M17.7,9.8c-0.2,0.1-0.5,0.2-1,0.3
			c-0.1,0-0.1,0.1-0.1,0.1c0,0.1,0,0.1,0.1,0.2c0,0,0.4,0.3,0.7,0.6c0,0,0,0,0,0c0,0,0,0,0,0c-0.5,0-1.3-0.1-1.9-0.9c0,0,0,0,0,0
			c0.1-0.1,0.3-0.2,0.5-0.3C16.4,9.6,17,9.6,17.7,9.8C17.7,9.8,17.7,9.8,17.7,9.8C17.7,9.8,17.7,9.8,17.7,9.8 M15.6,9.4
			c-0.2,0.1-0.5,0.3-0.9,0.5c-0.1,0-0.1,0.1-0.1,0.2c0,0.1,0,0.1,0.1,0.2c0,0,0.4,0.2,0.7,0.4c0,0,0,0,0,0c0,0,0,0,0,0
			c-0.1,0-0.3,0-0.4,0c-0.5,0-1.1-0.1-1.7-0.5c0,0,0,0,0,0c0.1-0.1,0.2-0.3,0.5-0.4C14.3,9.5,14.9,9.4,15.6,9.4
			C15.6,9.4,15.6,9.4,15.6,9.4C15.6,9.4,15.6,9.4,15.6,9.4 M13.5,9.5c-0.1,0.2-0.4,0.4-0.9,0.6c-0.1,0-0.1,0.1-0.1,0.2
			c0,0.1,0.1,0.1,0.1,0.1c0,0,0.4,0.1,0.8,0.3c0,0,0,0,0,0c0,0,0,0,0,0c-0.2,0.1-0.4,0.1-0.5,0.1c-0.2,0-0.4,0.1-0.6,0.1
			c-0.3,0-0.7,0-1-0.2c0,0,0,0,0,0c0.1-0.1,0.2-0.3,0.3-0.5C12.2,9.8,12.8,9.6,13.5,9.5C13.5,9.5,13.5,9.5,13.5,9.5
			C13.5,9.5,13.5,9.5,13.5,9.5 M10.8,10.8c-0.1,0-0.1,0.1,0,0.2c0,0.1,0.1,0.1,0.2,0.1h0c0,0,0.2,0,0.4,0c0.2,0,0.3,0.1,0.4,0.1
			c0,0,0,0,0,0c0,0,0,0,0,0c-0.2,0.1-0.3,0.2-0.5,0.2c-0.4,0.1-0.7,0.2-1,0.2c-0.2,0-0.4,0-0.6-0.1c0,0,0,0,0,0
			c0.1-0.3,0.4-1.2,1.9-1.7c0,0,0,0,0,0c0,0,0,0,0,0C11.4,10,11.2,10.4,10.8,10.8 M25.9,19.6c0-0.6,0.2-1,0.4-1.3c0,0,0,0,0,0
			c0,0,0,0,0,0c0.1,0.4,0.2,0.7,0.2,1c0,0.3,0,0.6-0.1,0.9c-0.1,0.3-0.3,0.5-0.3,0.6c0,0,0,0,0,0c0,0,0,0,0,0
			c-0.4-0.3-0.7-0.7-1-1.2c-0.1-0.2-0.1-0.4-0.2-0.5c0,0,0,0,0,0c0,0,0,0,0,0c0.4,0.2,0.7,0.5,0.7,0.6c0,0,0.1,0.1,0.2,0
			C25.8,19.7,25.9,19.7,25.9,19.6 M25.2,17.8c0-0.6,0.1-1,0.3-1.3c0,0,0,0,0,0c0,0,0,0,0,0c0.2,0.4,0.3,0.7,0.3,1c0,0.3,0,0.6,0,0.9
			c-0.1,0.3-0.2,0.6-0.3,0.7c0,0,0,0,0,0c0,0,0,0,0,0c-0.4-0.2-0.8-0.6-1.1-1.1c-0.1-0.2-0.2-0.3-0.2-0.5c0,0,0,0,0,0c0,0,0,0,0,0
			c0.4,0.2,0.7,0.5,0.7,0.5c0.1,0,0.1,0.1,0.2,0C25.2,17.9,25.2,17.8,25.2,17.8 M24.3,16.2L24.3,16.2c0.1,0,0.1-0.1,0.1-0.2
			c-0.1-0.6,0-1,0.1-1.3c0,0,0,0,0,0c0,0,0,0,0,0c0.2,0.3,0.3,0.7,0.4,1C25,16,25,16.3,25,16.6c0,0.3-0.1,0.6-0.2,0.7c0,0,0,0,0,0
			s0,0,0,0c-0.5-0.2-0.9-0.5-1.2-1c-0.1-0.2-0.2-0.3-0.3-0.5c0,0,0,0,0,0c0,0,0,0,0,0c0.4,0.1,0.8,0.4,0.8,0.4
			C24.1,16.2,24.2,16.3,24.3,16.2 M23,14.6c0.1,0,0.1,0,0.2,0c0.1,0,0.1-0.1,0.1-0.2c-0.2-0.5-0.1-1-0.1-1.3c0,0,0,0,0,0
			c0,0,0,0,0,0c0.2,0.3,0.4,0.6,0.6,0.9c0.1,0.3,0.2,0.6,0.2,0.9c0,0.3,0,0.6-0.1,0.7c0,0,0,0,0,0h0c-0.5-0.1-0.9-0.4-1.4-0.8
			c-0.1-0.1-0.3-0.3-0.4-0.5c0,0,0,0,0,0c0,0,0,0,0,0C22.7,14.4,23,14.6,23,14.6 M21.8,13.2c0.1,0,0.1,0,0.2,0c0-0.1,0.1-0.1,0-0.2
			c-0.3-0.5-0.3-1-0.3-1.3c0,0,0,0,0,0c0,0,0,0,0,0c0.3,0.2,0.5,0.5,0.7,0.8c0.2,0.3,0.3,0.6,0.4,0.9c0.1,0.3,0.1,0.6,0,0.7
			c0,0,0,0,0,0c0,0,0,0,0,0c-0.5,0-1.1-0.3-1.4-0.6c-0.2-0.1-0.3-0.3-0.5-0.4c0,0,0,0,0,0c0,0,0,0,0,0c0,0,0,0,0.1,0
			C21.4,13.1,21.8,13.2,21.8,13.2 M21.3,11.9c0.1,0.3,0.1,0.6,0.1,0.8c0,0,0,0,0,0c0,0-0.1,0-0.1,0c-0.7,0-1.5-0.5-1.9-0.7
			c0,0,0,0,0,0c0,0,0,0,0,0c0.4-0.1,0.8,0,0.8,0c0.1,0,0.1,0,0.2-0.1c0-0.1,0-0.1,0-0.2c-0.3-0.3-0.4-0.7-0.5-1c0,0,0,0,0,0
			c0,0,0,0,0,0C20.6,11,21.1,11.4,21.3,11.9 M9,9.9C9,9.9,9.1,9.9,9,9.9c0.5-0.2,0.9-0.3,1.1-0.3c0.4-0.1,0.8-0.3,0.8-0.3
			c0,0,0.1-0.1,0-0.1c0,0,0-0.1-0.1-0.1l-2-0.3l2-0.3c0.1,0,0.1-0.1,0.1-0.1c0-0.1,0-0.1-0.1-0.1c0,0-0.4-0.1-0.9-0.3
			C9.8,8,9.7,7.9,9.6,7.9C9.4,7.8,9.2,7.7,9,7.6c0,0,0.1,0,0.1,0c0.4,0,0.8,0.1,1,0.1c0.4,0.1,0.8,0,0.8,0c0,0,0.1,0,0.1-0.1
			c0,0,0-0.1-0.1-0.1l-1.7-1L11.2,7c0.1,0,0.1,0,0.1-0.1c0-0.1,0-0.1,0-0.1c0,0-0.4-0.2-0.7-0.6C10.5,6.1,10.4,6,10.3,6
			c-0.1-0.2-0.2-0.3-0.4-0.5c0,0,0.1,0,0.1,0c0.4,0.2,0.7,0.4,0.9,0.5c0.4,0.2,0.7,0.3,0.8,0.3c0,0,0.1,0,0.1,0c0,0,0-0.1,0-0.1
			l-1.2-1.6l1.6,1.2c0,0,0.1,0,0.1,0c0,0,0-0.1,0-0.1c0,0-0.3-0.4-0.4-0.8c0-0.1-0.1-0.3-0.1-0.4c-0.1-0.2-0.1-0.4-0.2-0.6
			c0,0,0,0.1,0.1,0.1c0.3,0.3,0.5,0.6,0.6,0.8c0.3,0.4,0.5,0.6,0.6,0.6c0,0,0.1,0,0.1,0c0,0,0.1-0.1,0-0.1l-0.5-1.9l1,1.7
			c0,0,0.1,0.1,0.1,0c0.1,0,0.1-0.1,0.1-0.1c0,0-0.1-0.4-0.1-0.9c0-0.1,0-0.3,0-0.4c0-0.2,0-0.4,0-0.6c0,0,0,0.1,0,0.1
			c0.1,0.4,0.2,0.8,0.3,1c0.1,0.4,0.3,0.7,0.3,0.8c0,0,0.1,0.1,0.1,0.1c0,0,0.1,0,0.1-0.1l0.3-1.9l0.3,1.9c0,0.1,0.1,0.1,0.1,0.1
			s0.1,0,0.1-0.1c0,0,0.1-0.4,0.3-0.9c0.1-0.1,0.1-0.2,0.2-0.3C15.8,3.4,15.9,3.3,16,3c0,0,0,0.1,0,0.1c0,0.4-0.1,0.8-0.1,1
			c-0.1,0.4,0,0.8,0,0.8c0,0,0,0.1,0.1,0.1c0,0,0.1,0,0.1-0.1l1-1.7l-0.5,1.9c0,0.1,0,0.1,0.1,0.1c0.1,0,0.1,0,0.1,0
			c0,0,0.2-0.4,0.6-0.7c0.1-0.1,0.2-0.2,0.3-0.3c0.2-0.1,0.3-0.2,0.4-0.4c0,0,0,0.1,0,0.1c-0.2,0.4-0.4,0.7-0.5,0.9
			c-0.2,0.4-0.3,0.7-0.3,0.8c0,0,0,0.1,0,0.1c0,0,0.1,0,0.1,0L19,4.6l-1.2,1.6c0,0,0,0.1,0,0.1c0,0,0.1,0,0.1,0c0,0,0.3-0.3,0.8-0.4
			c0.1,0,0.2-0.1,0.4-0.1c0.2-0.1,0.4-0.1,0.6-0.2c0,0,0,0-0.1,0.1c-0.3,0.3-0.6,0.5-0.8,0.6c-0.4,0.3-0.6,0.6-0.6,0.6
			c0,0,0,0.1,0,0.1c0,0,0.1,0.1,0.1,0l1.9-0.5l-1.7,1c0,0-0.1,0.1,0,0.1c0,0.1,0.1,0.1,0.1,0.1c0,0,0.4-0.1,0.9-0.1
			c0.1,0,0.3,0,0.4,0c0.2,0,0.4,0,0.6,0c0,0-0.1,0-0.1,0c-0.4,0.1-0.8,0.2-1,0.3c-0.4,0.1-0.8,0.3-0.8,0.3c0,0-0.1,0.1,0,0.1
			c0,0,0,0.1,0.1,0.1l2,0.3l-2,0.3c-0.1,0-0.1,0.1-0.1,0.1s0,0.1,0.1,0.1c0,0,0.4,0.1,0.9,0.3c0.1,0.1,0.2,0.1,0.3,0.2
			c0.2,0.1,0.3,0.2,0.6,0.3c0,0-0.1,0-0.1,0c-0.4,0-0.8-0.1-1-0.1l-0.1,0c-0.4-0.2-0.7-0.2-1.1-0.2c0,0,0,0,0,0
			c0-0.1-0.1-0.1-0.1-0.2c-0.5-0.2-1-0.3-1.5-0.3c-0.2,0-0.3,0-0.5,0c0,0,0,0,0-0.1c0-0.1-0.1-0.1-0.2-0.1C15.5,9,15,9,14.5,9.1
			c-0.2,0-0.3,0.1-0.5,0.1c0,0,0-0.1-0.1-0.1C13.9,9,13.9,9,13.8,9c-0.6,0-1.1,0.2-1.5,0.3c-0.1,0-0.2,0.1-0.3,0.2
			c0-0.1,0-0.1-0.1-0.1c-0.1,0-0.1-0.1-0.2,0c-0.5,0.2-1,0.4-1.4,0.6l0,0c-0.1,0-0.2,0-0.3,0c-0.1,0-0.4,0-0.4,0
			C9.4,9.9,9.2,9.9,9,9.9 M9.5,10.5C9.5,10.5,9.5,10.5,9.5,10.5C9.5,10.5,9.5,10.5,9.5,10.5c0,0.3-0.1,0.8-0.4,1.3
			c0,0.1,0,0.1,0,0.2C9.2,12,9.2,12,9.3,12c0,0,0.4-0.1,0.9-0.1c0,0,0,0,0,0c0,0,0,0,0,0c-0.4,0.3-1.1,0.8-1.9,0.8c0,0-0.1,0-0.1,0
			c0,0,0,0,0,0C8.2,12.4,8.3,11.4,9.5,10.5 M6.8,13.3c0.1-0.3,0.2-0.6,0.4-0.9c0.2-0.3,0.4-0.5,0.7-0.8c0,0,0,0,0,0c0,0,0,0,0,0
			c0,0.3,0,0.8-0.3,1.3c0,0.1,0,0.1,0,0.2c0,0.1,0.1,0.1,0.2,0c0,0,0.4-0.1,0.8-0.2c0,0,0,0,0,0c0,0,0,0,0,0
			c-0.2,0.2-0.3,0.3-0.5,0.4c-0.3,0.3-0.8,0.6-1.3,0.6c0,0,0,0-0.1,0c0,0,0,0,0,0C6.8,14,6.8,13.7,6.8,13.3 M6.4,13.1
			C6.4,13.1,6.4,13.1,6.4,13.1C6.4,13.1,6.4,13.1,6.4,13.1c0.1,0.3,0.1,0.8-0.1,1.3c0,0.1,0,0.1,0.1,0.2c0.1,0,0.1,0,0.2,0
			c0,0,0.4-0.2,0.8-0.3c0,0,0,0,0,0c0,0,0,0,0,0c-0.3,0.4-0.9,1.1-1.7,1.3l0,0c0,0,0,0,0,0C5.6,15.3,5.4,14.3,6.4,13.1 M4.7,15.7
			c0.1-0.3,0.3-0.6,0.5-1c0,0,0,0,0,0c0,0,0,0,0,0c0.1,0.3,0.2,0.7,0.1,1.3c0,0.1,0,0.1,0.1,0.2c0.1,0,0.1,0,0.2,0
			c0,0,0.3-0.3,0.8-0.4c0,0,0,0,0,0c0,0,0,0,0,0C6.3,16,6.1,16.2,6,16.4c-0.4,0.5-0.8,0.8-1.3,0.9c0,0,0,0,0,0s0,0,0,0
			c0-0.1-0.1-0.3-0.2-0.7C4.5,16.3,4.6,16,4.7,15.7 M3.7,17.5c0-0.3,0.2-0.7,0.3-1c0,0,0,0,0,0c0,0,0,0,0,0c0.1,0.3,0.3,0.7,0.3,1.3
			c0,0.1,0,0.1,0.1,0.2c0.1,0,0.1,0,0.2,0c0,0,0.4-0.3,0.8-0.5c0,0,0,0,0,0c0,0,0,0,0,0c0,0.2-0.1,0.3-0.2,0.5
			C5,18.4,4.6,18.8,4,19.1c0,0,0,0,0,0c0,0,0,0,0,0C4,19,3.8,18.7,3.8,18.4C3.7,18.1,3.7,17.8,3.7,17.5 M3.2,18.3
			C3.2,18.3,3.2,18.3,3.2,18.3C3.3,18.3,3.3,18.3,3.2,18.3c0.2,0.2,0.4,0.7,0.4,1.3c0,0.1,0,0.1,0.1,0.1c0.1,0,0.1,0,0.2-0.1
			c0,0,0.3-0.4,0.7-0.6c0,0,0,0,0,0c0,0,0,0,0,0c0,0.2-0.1,0.3-0.1,0.5c-0.2,0.6-0.5,1-1,1.3c0,0,0,0,0,0c0,0,0,0,0,0
			c-0.1-0.1-0.2-0.3-0.4-0.6c-0.1-0.3-0.1-0.6-0.1-0.9C3.1,19,3.1,18.7,3.2,18.3 M2.7,20.3C2.7,20.3,2.7,20.3,2.7,20.3
			C2.7,20.2,2.7,20.2,2.7,20.3c0.2,0.2,0.5,0.6,0.6,1.2c0,0.1,0.1,0.1,0.1,0.1c0.1,0,0.1,0,0.2-0.1c0,0,0.3-0.4,0.6-0.7c0,0,0,0,0,0
			c0,0,0,0,0,0c0,0.2,0,0.3-0.1,0.5c-0.1,0.6-0.4,1-0.8,1.4c0,0,0,0,0,0c0,0,0,0,0,0c-0.1-0.1-0.3-0.3-0.4-0.6
			c-0.1-0.3-0.2-0.6-0.3-0.9C2.6,21,2.6,20.6,2.7,20.3 M2.4,22.2C2.4,22.2,2.4,22.2,2.4,22.2C2.4,22.2,2.4,22.2,2.4,22.2
			c0.2,0.2,0.5,0.6,0.7,1.2c0,0.1,0.1,0.1,0.1,0.1c0.1,0,0.1,0,0.2-0.1c0,0,0.2-0.4,0.5-0.7c0,0,0,0,0,0c0,0,0,0,0,0
			c0,0.2,0,0.4,0,0.6c-0.1,0.6-0.3,1.1-0.7,1.4c0,0,0,0,0,0s0,0,0,0c-0.1-0.1-0.3-0.3-0.5-0.6c-0.1-0.3-0.2-0.6-0.3-0.9
			C2.3,22.9,2.3,22.6,2.4,22.2 M2.2,24.2C2.2,24.2,2.2,24.2,2.2,24.2C2.2,24.2,2.2,24.2,2.2,24.2c0.1,0,0.1,0.1,0.1,0.1
			c0.2,0.2,0.4,0.5,0.6,1c0,0.1,0.1,0.1,0.2,0.1c0.1,0,0.1-0.1,0.2-0.1c0,0,0.1-0.4,0.4-0.7c0,0,0,0,0,0c0,0,0,0,0,0
			c0,0.2,0.1,0.6,0,1c-0.1,0.5-0.3,0.8-0.6,1.1c0,0,0,0,0,0c0,0,0,0,0,0C2.8,26.5,2.1,25.8,2.2,24.2 M2.1,26.2
			C2.1,26.2,2.2,26.2,2.1,26.2c0.1,0,0.1,0.1,0.1,0.1c0.2,0.2,0.5,0.5,0.7,0.9c0,0.1,0.1,0.1,0.2,0.1l0,0c0.1,0,0.1,0,0.2-0.1
			c0,0,0.2-0.4,0.5-0.8c0,0,0,0,0,0c0,0,0,0,0,0c0.1,0.4,0.2,1.2-0.5,2.1c0,0,0,0,0,0s0,0,0,0C3,28.4,2.2,27.8,2.1,26.2
			C2.1,26.2,2.1,26.2,2.1,26.2 M2.2,28.3C2.2,28.3,2.2,28.3,2.2,28.3C2.3,28.3,2.3,28.3,2.2,28.3c0.3,0.1,0.7,0.4,1,0.9
			c0,0.1,0.1,0.1,0.2,0.1c0.1,0,0.1-0.1,0.1-0.1l0,0l0,0c0,0,0.1-0.5,0.3-0.9c0,0,0,0,0,0c0,0,0,0,0,0C4,28.4,4,28.6,4.1,28.8
			c0.1,0.6,0,1.1-0.3,1.6c0,0,0,0,0,0c0,0,0,0,0,0c-0.1,0-0.4-0.1-0.6-0.4c-0.2-0.2-0.4-0.4-0.6-0.7C2.4,29,2.3,28.7,2.2,28.3
			 M2.7,30.2C2.7,30.2,2.7,30.2,2.7,30.2C2.7,30.2,2.7,30.2,2.7,30.2c0.1,0,0.1,0,0.2,0.1c0.2,0.1,0.6,0.3,0.9,0.7
			c0,0.1,0.1,0.1,0.2,0.1C4,31,4.1,31,4.1,30.9c0,0,0.1-0.5,0.3-0.9c0,0,0,0,0,0h0c0,0,0,0,0,0c0.2,0.4,0.5,1.3,0.1,2.1c0,0,0,0,0,0
			c0,0,0,0,0,0C4.1,32.1,3.2,31.7,2.7,30.2 M3.9,33c-0.2-0.3-0.4-0.6-0.5-0.9c0,0,0,0,0,0c0,0,0,0,0,0c0.1,0,0.1,0,0.2,0.1
			c0.3,0.1,0.6,0.3,1,0.6c0,0,0.1,0.1,0.2,0c0.1,0,0.1-0.1,0.1-0.1c0,0,0-0.5,0.2-0.9c0,0,0,0,0,0c0,0,0,0,0,0
			C5,32,5.1,32.2,5.2,32.3c0.2,0.6,0.2,1.1,0.1,1.6c0,0,0,0,0,0h0c-0.1,0-0.4-0.1-0.7-0.3C4.3,33.5,4.1,33.3,3.9,33 M4.1,33.9
			C4.1,33.9,4.1,33.9,4.1,33.9C4.1,33.9,4.2,33.9,4.1,33.9c0.3,0,0.8,0.2,1.2,0.5c0.1,0,0.1,0,0.2,0c0.1,0,0.1-0.1,0.1-0.2
			c0,0,0-0.4,0-0.9c0,0,0,0,0,0c0,0,0,0,0,0C5.8,33.6,5.9,33.8,6,34c0.2,0.4,0.4,0.9,0.3,1.5c0,0,0,0,0,0c-0.1,0-0.4,0-0.7-0.2
			C5.3,35.2,5,35,4.8,34.8C4.6,34.6,4.3,34.3,4.1,33.9 M7.9,37.2c0,0-0.2-0.4-0.2-0.8c0,0,0,0,0,0c0,0,0,0,0,0c0.4,0.3,1,1,1,1.9
			c0,0,0,0,0,0c0,0-0.1,0-0.3,0c-0.1,0-0.2,0-0.4,0c-0.6-0.1-1.1-0.4-1.7-1c0,0,0,0,0,0c0,0,0,0,0,0c0.3,0,0.8,0,1.3,0.2
			c0.1,0,0.1,0,0.2,0C8,37.4,8,37.3,7.9,37.2 M6.4,36.1c0.1,0,0.1,0,0.2,0c0.1,0,0.1-0.1,0.1-0.2c0,0-0.1-0.4-0.1-0.8c0,0,0,0,0,0
			c0,0,0,0,0,0C7,35.4,7.5,36.2,7.5,37c0,0,0,0,0,0c0,0,0,0-0.1,0c-0.1,0-0.4,0-0.6-0.1c-0.3-0.1-0.6-0.2-0.8-0.5
			c-0.3-0.2-0.5-0.5-0.7-0.8c0,0,0,0,0,0c0,0,0,0,0,0C5.5,35.6,5.9,35.7,6.4,36.1 M12.9,31.7c-0.1,0-0.1,0.1-0.2,0.1
			c-0.4,0.2-0.6,0.5-0.7,0.8c0,0-0.1,0-0.1,0c-0.3-0.1-0.3-0.2-0.3-0.3c0-0.1,0.1-0.3,0.3-0.5c0.2-0.2,0.4-0.3,0.6-0.3
			c0.1,0,0.1,0,0.2,0C12.8,31.6,12.9,31.6,12.9,31.7C12.9,31.7,12.9,31.7,12.9,31.7 M13.2,33.1c-0.1,0-0.4,0-0.5,0
			c0,0-0.1-0.1-0.1-0.2c0-0.2,0.3-0.5,0.5-0.6c0.3-0.2,0.5-0.3,0.6-0.3c0.1,0,0.1,0,0.2,0.1c0.1,0,0.1,0.1,0.1,0.1
			c0,0.1-0.1,0.2-0.2,0.2C13.5,32.6,13.4,32.8,13.2,33.1 M14.6,33.1c-0.1,0.1-0.5,0.3-0.7,0.3c0,0-0.1,0-0.2-0.1
			c0.1-0.2,0.4-0.4,0.6-0.6c0.3-0.2,0.4-0.1,0.4-0.1c0.1,0.1,0.1,0.1,0.1,0.2C14.9,32.9,14.7,33.1,14.6,33.1
			C14.7,33.1,14.7,33.1,14.6,33.1 M11.7,31.3c0,0-0.1,0.1-0.1,0.1c-0.2,0.2-0.3,0.3-0.4,0.6c0,0-0.1,0-0.1,0c-0.2,0-0.3-0.1-0.3-0.1
			c0,0,0-0.1,0.1-0.2c0.2-0.2,0.5-0.4,0.7-0.4c0,0,0,0,0.1,0C11.6,31.3,11.6,31.3,11.7,31.3C11.6,31.3,11.7,31.3,11.7,31.3
			 M18.8,31.7c-0.1,0.1-0.2,0.1-0.4,0.1c-0.2-0.3-0.8-1-1.6-1.4c-0.1,0-0.1,0-0.2,0c-0.1,0-0.1,0.1-0.2,0.1c0,0.1,0,0.1,0,0.2
			c0,0.1,0.1,0.1,0.1,0.2c0.6,0.3,1.2,1,1.4,1.2c0,0,0,0.1-0.1,0.1c-0.1,0.1-0.3,0.2-0.5,0.2c-0.1-0.2-0.2-0.3-0.4-0.5
			c-0.2-0.3-0.7-0.6-0.7-0.6c-0.1,0-0.1-0.1-0.2,0c-0.1,0-0.1,0.1-0.2,0.1c0,0.1-0.1,0.1,0,0.2c0,0.1,0.1,0.1,0.1,0.2
			c0.1,0.1,0.5,0.3,0.6,0.5c0.2,0.2,0.3,0.3,0.3,0.4c0,0-0.1,0.1-0.1,0.2c-0.1,0.1-0.2,0.1-0.4,0.1c-0.1-0.2-0.2-0.4-0.5-0.8
			c-0.1-0.1-0.3-0.1-0.4,0c-0.1,0-0.1,0.1-0.1,0.2c0,0.1,0,0.1,0.1,0.2c0.2,0.2,0.3,0.4,0.4,0.6c0,0-0.1,0.1-0.1,0.1
			c-0.1,0.1-0.3,0.1-0.4,0.1c0.1-0.1,0.1-0.2,0.1-0.3c0-0.2,0-0.4-0.2-0.6c-0.1-0.1-0.4-0.2-0.7-0.2c0-0.2-0.1-0.3-0.3-0.5
			c-0.3-0.2-0.5-0.3-0.9-0.2v0c0-0.1-0.2-0.3-0.4-0.4c-0.2-0.1-0.5-0.1-0.7-0.1c-0.2-0.2-0.5-0.2-0.6-0.2c-0.4,0-0.8,0.1-1.1,0.4
			c-1.6,0.8-3.6,1.8-4.4,2.1c-0.4-0.8-0.8-1.7-1.1-2.6c-0.1-0.2-0.2-0.5-0.2-0.8c2.3-0.3,4.2-0.5,5.5-0.8c1.4-0.3,2.3-0.6,2.8-0.9
			c0.5-0.4,0.9-0.6,1.4-0.5c0.1,0,0.2,0,0.3,0c-0.1,0-0.2,0.1-0.3,0.2c-0.2,0.2-0.4,0.3-0.5,0.4c-0.1,0.1-0.2,0.2-0.4,0.3
			c-0.1,0.1-0.2,0.1-0.4,0.2c-0.3,0.2-0.6,0.3-0.7,0.5c-0.1,0.2-0.1,0.4,0.1,0.7c0.2,0.3,0.6,0.3,1,0.3c0.4,0,0.8-0.2,1.1-0.3
			c0.1-0.1,0.2-0.1,0.3-0.2c0.1-0.1,0.3-0.2,0.3-0.2c0,0,0,0,0,0c0.3-0.1,0.6,0,1,0.1c0.3,0.1,0.7,0.3,1,0.5
			c0.7,0.5,1.3,1.1,1.4,1.3C18.9,31.5,18.9,31.6,18.8,31.7 M19.8,31.5c-0.2-0.2-0.4-0.3-0.5-0.4c0,0,0,0,0,0l0,0c0,0,0,0,0,0
			c-0.2-0.3-0.8-0.9-1.5-1.3c-0.5-0.3-1.5-0.9-2.4-0.7c-0.2,0-0.3,0.1-0.5,0.3c-0.1,0.1-0.2,0.1-0.3,0.2c-0.3,0.2-0.6,0.3-0.9,0.3
			c-0.3,0-0.4,0-0.5-0.1c-0.1-0.1-0.1-0.1,0-0.1c0.1-0.1,0.3-0.2,0.4-0.2c0.2-0.1,0.3-0.2,0.4-0.2c0.2-0.1,0.3-0.2,0.4-0.3
			c0.1-0.1,0.2-0.2,0.4-0.3c0.3-0.2,0.6-0.2,1-0.2h0c0.1,0,0.1,0,0.2,0c0.1,0,0.1,0,0.2,0c0.5,0,0.9,0.1,1.6,0.4
			c0.2,0.1,0.4,0.1,0.7,0.2c0,0,0.9,0.3,2.1,0.6c1.1,0.3,2.6,0.6,4.1,0.7c-0.1,0.2-0.1,0.5-0.2,0.7c-0.3,1-0.7,1.9-1.1,2.7
			C22.7,33.1,21,32.3,19.8,31.5 M23.2,37.3c-0.7,0.7-1.3,0.9-1.7,1c-0.2,0-0.3,0-0.4,0c-0.1,0-0.2,0-0.3,0c0,0,0,0,0,0
			c0-0.5,0.2-1,0.6-1.5c0.1-0.1,0.3-0.3,0.4-0.4c0,0,0,0,0,0c0,0,0,0,0,0c0,0.4-0.2,0.8-0.2,0.8c0,0.1,0,0.1,0,0.2
			c0,0,0.1,0.1,0.2,0C22.4,37.2,22.9,37.2,23.2,37.3C23.2,37.3,23.2,37.3,23.2,37.3C23.2,37.3,23.2,37.3,23.2,37.3 M24.5,35.6
			c-0.2,0.3-0.5,0.6-0.7,0.8c-0.3,0.2-0.5,0.4-0.8,0.5C22.6,37,22.4,37,22.3,37c0,0-0.1,0-0.1,0c0,0,0,0,0,0c0-0.5,0.1-1,0.4-1.5
			c0.1-0.2,0.2-0.3,0.3-0.5c0,0,0,0,0,0c0,0,0,0,0,0c0,0.4,0,0.9,0,0.9c0,0.1,0,0.1,0.1,0.2c0.1,0,0.1,0,0.2,0
			C23.7,35.7,24.1,35.7,24.5,35.6C24.4,35.6,24.5,35.6,24.5,35.6C24.5,35.6,24.5,35.6,24.5,35.6 M24.8,34.8
			c-0.2,0.2-0.5,0.4-0.8,0.5c-0.3,0.1-0.6,0.2-0.7,0.2c0,0,0,0,0,0c-0.1-0.5,0-1,0.3-1.5c0.1-0.2,0.2-0.3,0.3-0.5c0,0,0,0,0,0
			c0,0,0,0,0,0c0.1,0.4,0,0.9,0,0.9c0,0.1,0,0.1,0.1,0.2c0.1,0,0.1,0,0.2,0c0.5-0.4,0.9-0.5,1.2-0.6c0,0,0,0,0,0c0,0,0,0,0,0
			C25.3,34.3,25.1,34.6,24.8,34.8 M25.7,33c-0.2,0.3-0.4,0.5-0.7,0.6c-0.3,0.2-0.5,0.2-0.7,0.3l0,0c0,0,0,0,0,0
			c-0.1-0.5-0.1-1,0.1-1.6c0.1-0.2,0.1-0.3,0.2-0.5c0,0,0,0,0,0c0,0,0,0,0,0c0.1,0.4,0.2,0.9,0.2,0.9c0,0.1,0,0.1,0.1,0.1
			c0.1,0,0.1,0,0.2,0c0.4-0.4,0.7-0.6,1-0.7c0.1,0,0.1,0,0.2-0.1c0,0,0,0,0,0c0,0,0,0,0,0C26.1,32.4,26,32.7,25.7,33 M26.4,31.1
			c-0.2,0.3-0.4,0.5-0.6,0.7c-0.3,0.2-0.5,0.3-0.6,0.3c0,0,0,0,0,0c0,0,0,0,0,0c-0.2-0.6-0.2-1.2-0.1-1.6c0-0.2,0.1-0.4,0.2-0.6
			c0,0,0,0,0,0h0c0,0,0,0,0,0c0.2,0.4,0.2,0.9,0.2,0.9c0,0.1,0.1,0.1,0.1,0.1c0.1,0,0.1,0,0.2-0.1c0.4-0.5,0.8-0.7,1.1-0.8
			c0,0,0,0,0,0c0,0,0,0,0,0C26.8,30.6,26.6,30.9,26.4,31.1 M27,29.2c-0.1,0.3-0.3,0.6-0.5,0.8c-0.2,0.2-0.5,0.3-0.6,0.4l0,0
			c0,0,0,0,0,0c-0.3-0.5-0.3-1-0.3-1.6c0-0.2,0.1-0.4,0.1-0.6c0,0,0,0,0,0c0,0,0,0,0,0c0.2,0.4,0.3,0.9,0.3,0.9
			c0,0.1,0.1,0.1,0.1,0.1c0.1,0,0.1,0,0.2-0.1c0.3-0.5,0.7-0.8,1-0.9c0,0,0,0,0,0c0,0,0,0,0,0C27.2,28.6,27.1,28.9,27,29.2"/>
		<path class="st3" d="M18.3,9.7c0.4,0,0.7,0.1,1.1,0.2l0.1,0c0.2,0,0.6,0.1,1,0.1c0,0,0.1,0,0.1,0C20.4,10,20.2,9.9,20,9.8
			c-0.1-0.1-0.2-0.1-0.3-0.2c-0.4-0.2-0.8-0.3-0.9-0.3c-0.1,0-0.1-0.1-0.1-0.1c0-0.1,0-0.1,0.1-0.1l2-0.3l-2-0.3c0,0-0.1,0-0.1-0.1
			c0,0,0-0.1,0.1-0.1c0,0,0.3-0.2,0.8-0.3c0.2,0,0.6-0.1,1-0.3c0,0,0.1,0,0.1,0c-0.2,0-0.4,0-0.6,0c-0.1,0-0.2,0-0.4,0
			c-0.5,0-0.9,0.1-0.9,0.1c-0.1,0-0.1,0-0.1-0.1c0-0.1,0-0.1,0-0.1l1.7-1L18.4,7c0,0-0.1,0-0.1,0c0,0,0-0.1,0-0.1
			c0,0,0.2-0.3,0.6-0.6c0.2-0.1,0.5-0.3,0.8-0.6c0,0,0.1,0,0.1-0.1c-0.2,0.1-0.4,0.2-0.6,0.2c-0.1,0-0.2,0.1-0.4,0.1
			C18.3,6.1,18,6.3,18,6.4c0,0-0.1,0-0.1,0c0,0,0-0.1,0-0.1L19,4.6l-1.6,1.2c0,0-0.1,0-0.1,0c0,0-0.1-0.1,0-0.1c0,0,0.1-0.4,0.3-0.8
			c0.1-0.2,0.3-0.5,0.5-0.9c0,0,0-0.1,0-0.1c-0.1,0.2-0.3,0.3-0.4,0.4c-0.1,0.1-0.2,0.2-0.3,0.3c-0.3,0.3-0.5,0.7-0.6,0.7
			c0,0-0.1,0.1-0.1,0c-0.1,0-0.1-0.1-0.1-0.1l0.5-1.9l-1,1.7c0,0-0.1,0.1-0.1,0.1c0,0-0.1,0-0.1-0.1c0,0-0.1-0.4,0-0.8
			c0-0.2,0.1-0.6,0.1-1c0,0,0-0.1,0-0.1c-0.1,0.2-0.2,0.4-0.3,0.6c-0.1,0.1-0.1,0.2-0.2,0.3c-0.2,0.4-0.3,0.8-0.3,0.9
			c0,0.1-0.1,0.1-0.1,0.1c-0.1,0-0.1,0-0.1-0.1l-0.3-1.9l-0.3,1.9c0,0,0,0.1-0.1,0.1c0,0-0.1,0-0.1-0.1c0,0-0.2-0.3-0.3-0.8
			c0-0.2-0.1-0.6-0.3-1c0,0,0-0.1,0-0.1c0,0.2,0,0.4,0,0.6c0,0.1,0,0.2,0,0.4c0,0.5,0.1,0.9,0.1,0.9c0,0.1,0,0.1-0.1,0.1
			c-0.1,0-0.1,0-0.1,0l-1-1.7L13,5.2c0,0,0,0.1,0,0.1c0,0-0.1,0-0.1,0c0,0-0.3-0.2-0.6-0.6c-0.1-0.2-0.3-0.5-0.6-0.8
			c0,0,0-0.1-0.1-0.1c0.1,0.2,0.2,0.4,0.2,0.6c0,0.1,0.1,0.2,0.1,0.4c0.2,0.4,0.4,0.8,0.4,0.8c0,0,0,0.1,0,0.1c0,0-0.1,0-0.1,0
			l-1.6-1.2l1.2,1.6c0,0,0,0.1,0,0.1c0,0-0.1,0.1-0.1,0c0,0-0.4-0.1-0.8-0.3c-0.2-0.1-0.5-0.3-0.9-0.5c0,0-0.1,0-0.1,0
			c0.2,0.1,0.3,0.3,0.4,0.5c0.1,0.1,0.2,0.2,0.3,0.3c0.3,0.4,0.7,0.6,0.7,0.6c0,0,0.1,0.1,0,0.1C11.3,7,11.3,7,11.2,7L9.3,6.5l1.7,1
			c0,0,0.1,0.1,0.1,0.1c0,0,0,0.1-0.1,0.1c0,0-0.4,0.1-0.8,0c-0.2,0-0.6-0.1-1-0.1c0,0-0.1,0-0.1,0c0.2,0.1,0.4,0.2,0.6,0.3
			C9.7,7.9,9.8,8,9.9,8.1c0.4,0.2,0.9,0.3,0.9,0.3c0.1,0,0.1,0.1,0.1,0.1s0,0.1-0.1,0.1l-2,0.3l2,0.3c0,0,0.1,0,0.1,0.1
			c0,0,0,0.1,0,0.1c0,0-0.3,0.2-0.8,0.3c-0.2,0-0.6,0.1-1,0.3c0,0-0.1,0-0.1,0c0.2,0,0.4,0,0.6,0c0,0,0.3,0,0.4,0c0.1,0,0.2,0,0.3,0
			l0,0c0.4-0.3,0.8-0.5,1.4-0.6c0.1,0,0.1,0,0.2,0c0,0,0.1,0.1,0.1,0.1c0.1-0.1,0.2-0.1,0.3-0.2c0.4-0.2,0.9-0.3,1.5-0.3
			c0.1,0,0.1,0,0.2,0.1c0,0,0.1,0.1,0.1,0.1c0.2-0.1,0.3-0.1,0.5-0.1C15,9,15.5,9,16,9.1c0.1,0,0.1,0.1,0.2,0.1c0,0,0,0,0,0.1
			c0.2,0,0.3,0,0.5,0c0.5,0,1,0.1,1.5,0.3C18.3,9.5,18.3,9.6,18.3,9.7C18.3,9.7,18.3,9.7,18.3,9.7"/>
		<path class="st2" d="M15.5,7.2c1.9-0.3,2.1,0.2,2.1,0.2s0.1,0.1,0.2,0.1c0,0,0.1,0,0.1-0.2c0,0-0.2-0.6-1.2-0.7c0,0-0.5-0.1-1.1,0
			c-0.2,0-0.2,0.4-0.2,0.4C15.3,7.2,15.5,7.2,15.5,7.2"/>
		<path class="st2" d="M13.9,7.6c-0.2-0.1-0.8-0.1-0.8-0.1C12.2,7.5,12,8,12,8c-0.1,0.2,0.1,0.2,0.1,0.2c0.2,0,0.2-0.1,0.2-0.1
			s0-0.2,0.4-0.2c0,0.1,0,0.1,0,0.2c0,0.2,0.2,0.4,0.4,0.4c0.2,0,0.4-0.2,0.4-0.4c0-0.1,0-0.1,0-0.2c0.1,0,0.2,0.1,0.3,0.3
			c0,0.1,0.1,0.1,0.3,0.1c0.2,0,0.1-0.1,0.1-0.1C14.2,7.7,13.9,7.6,13.9,7.6"/>
		<path class="st2" d="M15.5,8.3c0.2,0,0.2,0,0.3-0.1C15.8,8,15.9,7.9,16,7.9c0,0.1,0,0.1,0,0.2c0,0.2,0.2,0.4,0.4,0.4
			c0.2,0,0.4-0.2,0.4-0.4c0-0.1,0-0.1,0-0.2c0.4,0.1,0.4,0.2,0.4,0.2s0.1,0.1,0.2,0.1c0,0,0.2,0,0.1-0.2c0,0-0.2-0.5-1.1-0.6
			c0,0-0.5,0-0.8,0.1c0,0-0.3,0.1-0.4,0.6C15.3,8.1,15.3,8.3,15.5,8.3"/>
		<path class="st2" d="M11.8,7.5c0.2,0,0.2-0.1,0.2-0.1s0.2-0.5,2.1-0.2c0,0,0.2,0,0.1-0.1c0,0,0-0.4-0.2-0.4c-0.6-0.1-1.1,0-1.1,0
			c-1,0.1-1.2,0.7-1.2,0.7C11.6,7.5,11.8,7.5,11.8,7.5"/>
		<path class="st4" d="M23.2,37.3c-0.3,0-0.8,0-1.3,0.2c-0.1,0-0.1,0-0.2,0c0,0-0.1-0.1,0-0.2c0,0,0.2-0.4,0.2-0.8c0,0,0,0,0,0
			c0,0,0,0,0,0c-0.2,0.1-0.3,0.3-0.4,0.4c-0.4,0.5-0.6,1-0.6,1.5c0,0,0,0,0,0c0.1,0,0.1,0,0.3,0c0.1,0,0.2,0,0.4,0
			C21.9,38.2,22.5,38,23.2,37.3C23.2,37.3,23.2,37.3,23.2,37.3C23.2,37.3,23.2,37.3,23.2,37.3"/>
		<path class="st4" d="M7.8,36.4C7.8,36.4,7.8,36.4,7.8,36.4C7.7,36.4,7.7,36.4,7.8,36.4c0,0.4,0.2,0.8,0.2,0.8c0,0.1,0,0.1,0,0.2
			c0,0-0.1,0.1-0.2,0c-0.6-0.2-1-0.2-1.3-0.2c0,0,0,0,0,0c0,0,0,0,0,0c0.6,0.5,1.1,0.9,1.7,1c0.2,0,0.3,0,0.4,0c0.1,0,0.2,0,0.3,0
			c0,0,0,0,0,0C8.8,37.4,8.1,36.7,7.8,36.4"/>
		<path class="st4" d="M24.4,35.6c-0.3,0-0.8,0.1-1.3,0.4c-0.1,0-0.1,0-0.2,0c-0.1,0-0.1-0.1-0.1-0.2c0,0,0.1-0.4,0-0.9c0,0,0,0,0,0
			c0,0,0,0,0,0c-0.1,0.1-0.2,0.3-0.3,0.5c-0.3,0.5-0.5,1-0.4,1.5c0,0,0,0,0,0c0,0,0,0,0.1,0c0.1,0,0.4,0,0.6-0.1
			c0.3-0.1,0.6-0.2,0.8-0.5C24,36.2,24.2,36,24.4,35.6C24.5,35.6,24.5,35.6,24.4,35.6C24.5,35.6,24.4,35.6,24.4,35.6"/>
		<path class="st4" d="M25.5,33.9c-0.3,0.1-0.8,0.2-1.2,0.6c-0.1,0-0.1,0-0.2,0c-0.1,0-0.1-0.1-0.1-0.2c0,0,0-0.4,0-0.9c0,0,0,0,0,0
			c0,0,0,0,0,0c-0.1,0.2-0.2,0.3-0.3,0.5c-0.3,0.5-0.4,1.1-0.3,1.5c0,0,0,0,0,0c0.1,0,0.4,0,0.7-0.2c0.3-0.1,0.5-0.3,0.8-0.5
			C25.1,34.6,25.3,34.3,25.5,33.9C25.5,33.9,25.5,33.9,25.5,33.9C25.5,33.9,25.5,33.9,25.5,33.9"/>
		<path class="st4" d="M26.3,32.1c-0.1,0-0.1,0-0.2,0.1c-0.2,0.1-0.6,0.3-1,0.7c0,0-0.1,0.1-0.2,0c-0.1,0-0.1-0.1-0.1-0.1
			c0,0,0-0.4-0.2-0.9c0,0,0,0,0,0c0,0,0,0,0,0c-0.1,0.2-0.2,0.3-0.2,0.5c-0.2,0.6-0.2,1.1-0.1,1.6c0,0,0,0,0,0h0
			c0.1,0,0.4-0.1,0.7-0.3c0.3-0.2,0.5-0.4,0.7-0.6C26,32.7,26.1,32.4,26.3,32.1C26.3,32.1,26.3,32.1,26.3,32.1
			C26.3,32.1,26.3,32.1,26.3,32.1"/>
		<path class="st4" d="M26.9,30.2c-0.3,0.1-0.7,0.3-1.1,0.8c0,0.1-0.1,0.1-0.2,0.1c-0.1,0-0.1-0.1-0.1-0.1c0,0-0.1-0.5-0.2-0.9
			c0,0,0,0,0,0c0,0,0,0,0,0c-0.1,0.2-0.1,0.4-0.2,0.6c-0.1,0.4-0.2,1,0.1,1.6c0,0,0,0,0,0c0,0,0,0,0,0c0.1,0,0.4-0.1,0.6-0.3
			c0.2-0.2,0.5-0.4,0.6-0.7C26.6,30.9,26.8,30.6,26.9,30.2C26.9,30.2,26.9,30.2,26.9,30.2C26.9,30.2,26.9,30.2,26.9,30.2"/>
		<path class="st4" d="M27.3,28.2c-0.3,0.1-0.7,0.4-1,0.9c0,0.1-0.1,0.1-0.2,0.1c-0.1,0-0.1-0.1-0.1-0.1c0,0-0.1-0.5-0.3-0.9
			c0,0,0,0,0,0c0,0,0,0,0,0c-0.1,0.2-0.1,0.4-0.1,0.6c-0.1,0.6,0,1.1,0.3,1.6c0,0,0,0,0,0c0,0,0,0,0,0c0.1,0,0.4-0.2,0.6-0.4
			c0.2-0.2,0.4-0.5,0.5-0.8C27.1,28.9,27.2,28.6,27.3,28.2C27.3,28.2,27.3,28.2,27.3,28.2C27.3,28.2,27.3,28.2,27.3,28.2"/>
		<path class="st4" d="M26.6,27.2c0,0.1-0.1,0.1-0.2,0.1c-0.1,0-0.1,0-0.1-0.1c0,0-0.2-0.4-0.4-0.8c0,0,0,0,0,0c0,0,0,0,0,0
			c0,0.2-0.1,0.4-0.1,0.6c0,0.6,0.1,1.1,0.4,1.5c0,0,0,0,0,0c0,0,0,0,0,0c0.1,0,0.3-0.2,0.6-0.5c0.2-0.2,0.3-0.5,0.5-0.8
			c0.1-0.3,0.2-0.7,0.2-1c0,0,0,0,0,0c0,0,0,0,0,0C27.2,26.4,26.8,26.7,26.6,27.2"/>
		<path class="st4" d="M26.5,25.4c-0.1,0-0.1,0-0.2-0.1c0,0-0.2-0.4-0.5-0.7c0,0,0,0,0,0c0,0,0,0,0,0c0,0.5,0,1.4,0.6,2c0,0,0,0,0,0
			s0,0,0,0c0.1-0.1,0.3-0.2,0.5-0.5c0.2-0.2,0.3-0.5,0.4-0.9c0.1-0.3,0.1-0.7,0.1-1.1c0,0,0,0,0,0c0,0,0,0,0,0
			c-0.2,0.2-0.5,0.6-0.7,1.1C26.6,25.4,26.6,25.4,26.5,25.4"/>
		<path class="st4" d="M26.4,23.5c-0.1,0-0.1,0-0.2-0.1c0,0-0.2-0.4-0.5-0.6c0,0,0,0,0,0c0,0,0,0,0,0c0,0.5,0.2,1.5,0.7,1.9
			c0,0,0,0,0,0s0,0,0,0c0.1-0.1,0.3-0.3,0.5-0.6c0.1-0.3,0.2-0.6,0.3-0.9c0-0.3,0-0.7,0-1.1c0,0,0,0,0,0c0,0,0,0,0,0
			c-0.2,0.2-0.5,0.6-0.6,1.2C26.5,23.4,26.5,23.5,26.4,23.5"/>
		<path class="st4" d="M26.2,21.6c-0.1,0-0.1,0-0.2-0.1c0,0-0.3-0.4-0.6-0.6c0,0,0,0,0,0c0,0,0,0,0,0c0,0.2,0.1,0.4,0.1,0.6
			c0.1,0.4,0.3,1,0.8,1.3c0,0,0,0,0,0c0,0,0,0,0,0c0.1-0.1,0.3-0.3,0.4-0.6c0.1-0.3,0.2-0.6,0.3-0.9c0-0.3,0-0.7,0-1.1c0,0,0,0,0,0
			c0,0,0,0,0,0c-0.2,0.2-0.5,0.6-0.6,1.2C26.3,21.5,26.2,21.6,26.2,21.6"/>
		<path class="st4" d="M25.7,19.7c-0.1,0-0.1,0-0.2,0c0,0-0.3-0.3-0.7-0.6c0,0,0,0,0,0c0,0,0,0,0,0c0,0.2,0.1,0.4,0.2,0.5
			c0.2,0.6,0.5,1,1,1.2c0,0,0,0,0,0c0,0,0,0,0,0c0.1-0.1,0.2-0.3,0.3-0.6c0.1-0.3,0.1-0.6,0.1-0.9c0-0.3-0.1-0.7-0.2-1c0,0,0,0,0,0
			c0,0,0,0,0,0c-0.2,0.3-0.4,0.7-0.4,1.3C25.9,19.7,25.8,19.7,25.7,19.7"/>
		<path class="st4" d="M24.9,17.9c0,0-0.3-0.3-0.7-0.5c0,0,0,0,0,0c0,0,0,0,0,0c0.1,0.2,0.1,0.4,0.2,0.5c0.3,0.5,0.6,0.9,1.1,1.1
			c0,0,0,0,0,0c0,0,0,0,0,0c0.1-0.1,0.2-0.3,0.3-0.7c0.1-0.3,0.1-0.6,0-0.9c0-0.3-0.1-0.7-0.3-1c0,0,0,0,0,0c0,0,0,0,0,0
			c-0.1,0.3-0.3,0.7-0.3,1.3c0,0.1,0,0.1-0.1,0.2C25,18,25,17.9,24.9,17.9"/>
		<path class="st4" d="M23.3,15.8C23.3,15.8,23.3,15.8,23.3,15.8c0.1,0.2,0.2,0.4,0.3,0.5c0.3,0.5,0.7,0.8,1.2,1l0,0c0,0,0,0,0,0
			c0-0.1,0.2-0.3,0.2-0.7c0-0.3,0-0.6-0.1-0.9c-0.1-0.3-0.2-0.6-0.4-1c0,0,0,0,0,0c0,0,0,0,0,0c-0.1,0.3-0.2,0.7-0.1,1.3
			c0,0.1,0,0.1-0.1,0.2c-0.1,0-0.1,0-0.2,0C24.1,16.2,23.7,15.9,23.3,15.8C23.3,15.8,23.3,15.8,23.3,15.8"/>
		<path class="st4" d="M22.2,14.4C22.2,14.4,22.2,14.4,22.2,14.4c0.1,0.2,0.2,0.3,0.4,0.5c0.4,0.4,0.9,0.7,1.4,0.8h0c0,0,0,0,0,0
			c0-0.1,0.1-0.4,0.1-0.7c0-0.3-0.1-0.6-0.2-0.9c-0.1-0.3-0.3-0.6-0.6-0.9c0,0,0,0,0,0c0,0,0,0,0,0c-0.1,0.3-0.1,0.8,0.1,1.3
			c0,0.1,0,0.1-0.1,0.2c-0.1,0-0.1,0-0.2,0C23,14.6,22.7,14.4,22.2,14.4C22.2,14.3,22.2,14.3,22.2,14.4"/>
		<path class="st4" d="M22,13.2c0,0.1-0.1,0.1-0.2,0c0,0-0.4-0.1-0.8-0.1c0,0,0,0-0.1,0c0,0,0,0,0,0s0,0,0,0
			c0.2,0.2,0.3,0.3,0.5,0.4c0.3,0.3,0.8,0.6,1.4,0.6c0,0,0,0,0,0c0,0,0,0,0,0c0-0.1,0-0.4,0-0.7c-0.1-0.3-0.2-0.6-0.4-0.9
			c-0.2-0.3-0.4-0.5-0.7-0.8c0,0,0,0,0,0c0,0,0,0,0,0c0,0.3,0,0.8,0.3,1.3C22,13.1,22,13.1,22,13.2"/>
		<path class="st4" d="M7.4,37C7.4,37,7.4,37,7.4,37C7.4,37,7.5,37,7.4,37c0.1-0.8-0.4-1.6-0.7-2c0,0,0,0,0,0c0,0,0,0,0,0
			c0,0.4,0.1,0.8,0.1,0.8c0,0.1,0,0.1-0.1,0.2c-0.1,0-0.1,0-0.2,0c-0.5-0.3-1-0.4-1.3-0.4c0,0,0,0,0,0c0,0,0,0,0,0
			c0.2,0.3,0.5,0.6,0.7,0.8c0.3,0.2,0.5,0.4,0.8,0.5C7,37,7.2,37,7.4,37"/>
		<path class="st4" d="M6.3,35.5L6.3,35.5C6.3,35.5,6.3,35.5,6.3,35.5C6.4,34.9,6.2,34.3,6,34c-0.1-0.2-0.2-0.3-0.3-0.5c0,0,0,0,0,0
			c0,0,0,0,0,0c-0.1,0.4,0,0.8,0,0.9c0,0.1,0,0.1-0.1,0.2c-0.1,0-0.1,0-0.2,0c-0.5-0.4-0.9-0.5-1.2-0.6c0,0,0,0,0,0c0,0,0,0,0,0
			c0.2,0.3,0.4,0.6,0.6,0.8C5,35,5.3,35.2,5.6,35.3C5.9,35.5,6.1,35.5,6.3,35.5"/>
		<path class="st4" d="M5.2,33.9L5.2,33.9C5.3,33.9,5.3,33.9,5.2,33.9c0.2-0.5,0.1-1-0.1-1.6C5.1,32.2,5,32,4.9,31.8c0,0,0,0,0,0
			c0,0,0,0,0,0c-0.1,0.4-0.2,0.9-0.2,0.9c0,0.1,0,0.1-0.1,0.1c-0.1,0-0.1,0-0.2,0c-0.4-0.4-0.7-0.5-1-0.6c-0.1,0-0.1,0-0.2-0.1
			c0,0,0,0,0,0c0,0,0,0,0,0c0.2,0.3,0.3,0.7,0.5,0.9c0.2,0.3,0.4,0.5,0.7,0.6C4.9,33.8,5.1,33.9,5.2,33.9"/>
		<path class="st4" d="M4.4,32.2C4.4,32.2,4.4,32.2,4.4,32.2C4.4,32.2,4.4,32.2,4.4,32.2c0.4-0.9,0.1-1.7-0.1-2.1c0,0,0,0,0,0
			c0,0,0,0,0,0c-0.2,0.4-0.3,0.8-0.3,0.9C4.1,31,4,31,4,31.1c-0.1,0-0.1,0-0.2-0.1c-0.3-0.4-0.7-0.6-0.9-0.7c-0.1,0-0.1-0.1-0.2-0.1
			c0,0,0,0,0,0c0,0,0,0,0,0C3.2,31.7,4.1,32.1,4.4,32.2"/>
		<path class="st4" d="M3.2,30c0.3,0.2,0.5,0.3,0.6,0.4h0c0,0,0,0,0,0c0.3-0.5,0.4-1.1,0.3-1.6c0-0.2-0.1-0.4-0.2-0.5c0,0,0,0,0,0
			c0,0,0,0,0,0c-0.2,0.4-0.3,0.8-0.3,0.9l0,0l0,0c0,0.1-0.1,0.1-0.1,0.1c-0.1,0-0.1,0-0.2-0.1c-0.3-0.5-0.7-0.8-1-0.9c0,0,0,0,0,0
			c0,0,0,0,0,0c0.1,0.4,0.2,0.7,0.4,1C2.8,29.6,3,29.8,3.2,30"/>
		<path class="st4" d="M3.3,28.6C3.3,28.6,3.3,28.6,3.3,28.6C3.3,28.6,3.3,28.6,3.3,28.6c0.6-0.8,0.6-1.7,0.5-2.1c0,0,0,0,0,0
			c0,0,0,0,0,0c-0.3,0.3-0.5,0.8-0.5,0.8c0,0.1-0.1,0.1-0.2,0.1h0c-0.1,0-0.1,0-0.2-0.1c-0.2-0.5-0.5-0.8-0.7-0.9
			c0,0-0.1-0.1-0.1-0.1c0,0,0,0,0,0c0,0,0,0,0,0C2.2,27.8,3,28.4,3.3,28.6"/>
		<path class="st4" d="M3.1,26.7C3.1,26.7,3.1,26.7,3.1,26.7C3.1,26.7,3.1,26.7,3.1,26.7c0.3-0.3,0.5-0.7,0.6-1.1c0.1-0.4,0-0.7,0-1
			c0,0,0,0,0,0c0,0,0,0,0,0c-0.3,0.3-0.4,0.7-0.4,0.7c0,0.1-0.1,0.1-0.2,0.1c-0.1,0-0.1,0-0.2-0.1c-0.2-0.5-0.4-0.8-0.6-1
			c0,0-0.1-0.1-0.1-0.1c0,0,0,0,0,0c0,0,0,0,0,0C2.1,25.8,2.8,26.5,3.1,26.7"/>
		<path class="st4" d="M2.7,24.1c0.2,0.3,0.4,0.5,0.5,0.6c0,0,0,0,0,0s0,0,0,0c0.4-0.3,0.6-0.8,0.7-1.4c0-0.2,0-0.4,0-0.6
			c0,0,0,0,0,0c0,0,0,0,0,0c-0.3,0.3-0.5,0.7-0.5,0.7c0,0.1-0.1,0.1-0.2,0.1c-0.1,0-0.1-0.1-0.1-0.1c-0.1-0.6-0.4-0.9-0.6-1.2
			c0,0,0,0,0,0c0,0,0,0,0,0c0,0.4,0,0.7,0,1.1C2.4,23.6,2.5,23.9,2.7,24.1"/>
		<path class="st4" d="M2.9,22.2c0.1,0.3,0.3,0.5,0.4,0.6c0,0,0,0,0,0c0,0,0,0,0,0c0.4-0.4,0.7-0.8,0.8-1.4c0-0.2,0.1-0.3,0.1-0.5
			c0,0,0,0,0,0c0,0,0,0,0,0c-0.3,0.3-0.6,0.6-0.6,0.7c0,0.1-0.1,0.1-0.2,0.1c-0.1,0-0.1-0.1-0.1-0.1c-0.1-0.6-0.4-1-0.6-1.2
			c0,0,0,0,0,0c0,0,0,0,0,0c-0.1,0.4-0.1,0.7,0,1.1C2.7,21.6,2.7,21.9,2.9,22.2"/>
		<path class="st4" d="M3.6,20.9C3.6,20.9,3.6,20.9,3.6,20.9C3.6,20.9,3.6,20.9,3.6,20.9c0.5-0.3,0.9-0.7,1-1.3
			c0.1-0.2,0.1-0.3,0.1-0.5c0,0,0,0,0,0c0,0,0,0,0,0C4.3,19.3,4,19.7,4,19.7c0,0.1-0.1,0.1-0.2,0.1c-0.1,0-0.1-0.1-0.1-0.1
			c0-0.6-0.3-1-0.4-1.3c0,0,0,0,0,0c0,0,0,0,0,0c-0.1,0.4-0.2,0.7-0.2,1c0,0.3,0,0.6,0.1,0.9C3.3,20.6,3.5,20.8,3.6,20.9"/>
		<path class="st4" d="M4,19.1C4,19.1,4,19.1,4,19.1C4,19.1,4,19.1,4,19.1c0.5-0.3,0.9-0.7,1.2-1.2c0.1-0.2,0.1-0.3,0.2-0.5
			c0,0,0,0,0,0c0,0,0,0,0,0c-0.4,0.2-0.8,0.5-0.8,0.5c0,0-0.1,0.1-0.2,0c-0.1,0-0.1-0.1-0.1-0.2c0-0.6-0.1-1-0.3-1.3c0,0,0,0,0,0
			c0,0,0,0,0,0c-0.2,0.3-0.3,0.7-0.3,1c0,0.3,0,0.6,0,0.9C3.8,18.7,4,19,4,19.1"/>
		<path class="st4" d="M4.7,17.3C4.7,17.3,4.7,17.3,4.7,17.3C4.7,17.3,4.7,17.3,4.7,17.3c0.5-0.1,0.9-0.5,1.3-0.9
			c0.2-0.2,0.3-0.4,0.3-0.5c0,0,0,0,0,0c0,0,0,0,0,0c-0.5,0.1-0.8,0.4-0.8,0.4c-0.1,0.1-0.1,0.1-0.2,0c-0.1,0-0.1-0.1-0.1-0.2
			c0.1-0.6,0-1-0.1-1.3c0,0,0,0,0,0c0,0,0,0,0,0c-0.2,0.3-0.4,0.6-0.5,1c-0.1,0.3-0.1,0.6-0.1,0.9C4.6,17,4.7,17.2,4.7,17.3"/>
		<path class="st4" d="M5.7,15.6L5.7,15.6c0.8-0.1,1.4-0.9,1.7-1.3c0,0,0,0,0,0c0,0,0,0,0,0c-0.5,0-0.8,0.3-0.8,0.3
			c-0.1,0-0.1,0-0.2,0c-0.1,0-0.1-0.1-0.1-0.2c0.2-0.6,0.2-1,0.1-1.3c0,0,0,0,0,0c0,0,0,0,0,0C5.4,14.3,5.6,15.3,5.7,15.6
			C5.7,15.6,5.7,15.6,5.7,15.6"/>
		<path class="st4" d="M6.8,14.1C6.8,14.1,6.9,14.1,6.8,14.1c0.5,0,1-0.3,1.4-0.6c0.2-0.1,0.3-0.3,0.5-0.4c0,0,0,0,0,0c0,0,0,0,0,0
			c-0.4,0-0.8,0.1-0.8,0.2c-0.1,0-0.1,0-0.2,0c0-0.1-0.1-0.1,0-0.2c0.3-0.5,0.3-1,0.3-1.3c0,0,0,0,0,0c0,0,0,0,0,0
			c-0.3,0.3-0.5,0.5-0.7,0.8c-0.2,0.3-0.3,0.6-0.4,0.9C6.8,13.7,6.8,14,6.8,14.1C6.8,14.1,6.8,14.1,6.8,14.1"/>
		<path class="st4" d="M10.1,12c-0.4,0-0.8,0.1-0.9,0.1c-0.1,0-0.1,0-0.2-0.1c0-0.1,0-0.1,0-0.2c0.3-0.5,0.4-1,0.4-1.3c0,0,0,0,0,0
			s0,0,0,0c-1.3,0.9-1.4,1.9-1.3,2.2c0,0,0,0,0,0c0,0,0.1,0,0.1,0C9.1,12.8,9.8,12.3,10.1,12C10.1,12,10.1,12,10.1,12
			C10.1,12,10.1,12,10.1,12"/>
		<path class="st4" d="M11.8,11.2c-0.1,0-0.3-0.1-0.4-0.1c-0.2,0-0.4,0-0.4,0h0c-0.1,0-0.1,0-0.2-0.1c0-0.1,0-0.1,0-0.2
			c0.4-0.4,0.6-0.7,0.7-0.9c0,0,0,0,0,0c0,0,0,0,0,0c-1.5,0.5-1.8,1.4-1.9,1.7c0,0,0,0,0,0c0.2,0,0.3,0.1,0.6,0.1c0.3,0,0.6,0,1-0.2
			C11.4,11.4,11.6,11.3,11.8,11.2C11.8,11.2,11.8,11.2,11.8,11.2C11.8,11.2,11.8,11.2,11.8,11.2"/>
		<path class="st4" d="M13.5,10.7c-0.4-0.2-0.8-0.3-0.8-0.3c-0.1,0-0.1-0.1-0.1-0.1c0-0.1,0-0.1,0.1-0.2c0.5-0.2,0.7-0.5,0.9-0.6
			c0,0,0,0,0,0c0,0,0,0,0,0c-0.8,0.1-1.4,0.4-1.7,0.7c-0.2,0.2-0.3,0.4-0.3,0.5c0,0,0,0,0,0c0.3,0.2,0.7,0.2,1,0.2
			c0.2,0,0.4,0,0.6-0.1C13.2,10.8,13.3,10.8,13.5,10.7C13.5,10.7,13.5,10.7,13.5,10.7C13.5,10.7,13.5,10.7,13.5,10.7"/>
		<path class="st4" d="M14.7,10.2c-0.1,0-0.1-0.1-0.1-0.2c0-0.1,0-0.1,0.1-0.2c0.5-0.1,0.8-0.3,0.9-0.5c0,0,0,0,0,0c0,0,0,0,0,0
			c-0.7,0-1.4,0.1-1.8,0.4c-0.2,0.1-0.4,0.3-0.5,0.4c0,0,0,0,0,0c0.5,0.4,1.2,0.5,1.7,0.5c0.2,0,0.3,0,0.4,0c0,0,0,0,0,0
			c0,0,0,0,0,0C15.1,10.4,14.7,10.2,14.7,10.2"/>
		<path class="st4" d="M16.6,10.3c-0.1,0-0.1-0.1-0.1-0.2c0-0.1,0.1-0.1,0.1-0.1c0.5-0.1,0.8-0.2,1-0.3c0,0,0,0,0,0c0,0,0,0,0,0
			c-0.7-0.2-1.3-0.2-1.8,0c-0.3,0.1-0.4,0.2-0.5,0.3c0,0,0,0,0,0c0.6,0.7,1.5,0.9,1.9,0.9c0,0,0,0,0,0c0,0,0,0,0,0
			C17,10.6,16.6,10.3,16.6,10.3"/>
		<path class="st4" d="M21.4,12.8C21.5,12.8,21.5,12.7,21.4,12.8c0-0.2,0-0.5-0.1-0.8c-0.2-0.6-0.7-1-1.3-1.2c0,0,0,0,0,0
			c0,0,0,0,0,0c0.1,0.3,0.3,0.7,0.5,1c0,0.1,0,0.1,0,0.2c0,0.1-0.1,0.1-0.2,0.1c0,0-0.4-0.1-0.8,0c0,0,0,0,0,0c0,0,0,0,0,0
			C19.9,12.3,20.7,12.8,21.4,12.8C21.4,12.8,21.4,12.8,21.4,12.8"/>
		<path class="st4" d="M19.9,11.6C19.9,11.6,19.9,11.5,19.9,11.6c-0.4-0.4-0.8-0.6-1.4-0.5c-0.2,0-0.4,0.1-0.6,0.1c0,0,0,0,0,0
			c0,0,0,0,0,0c0.4,0.3,0.9,0.5,1.4,0.5c0,0,0.1,0,0.1,0C19.6,11.7,19.8,11.6,19.9,11.6C19.9,11.6,19.9,11.6,19.9,11.6"/>
		<path class="st4" d="M17.2,10.4C17.2,10.4,17.2,10.4,17.2,10.4c0.3,0.2,0.6,0.3,1,0.3c0.2,0,0.3,0,0.5-0.1
			c0.3-0.1,0.6-0.1,0.7-0.2c0,0,0,0,0,0c0,0,0,0,0,0c-0.3-0.2-0.5-0.3-0.8-0.3c-0.3,0-0.6,0-0.9,0C17.5,10.2,17.3,10.3,17.2,10.4
			C17.2,10.4,17.2,10.4,17.2,10.4"/>
		<path class="st5" d="M11.7,21.1c0.1,0.1,0.2,0.2,0.5,0.2h2.1C13,20.5,12.5,20.7,11.7,21.1C11.6,21.1,11.7,21.1,11.7,21.1"/>
		<path class="st5" d="M16.9,20.2c-0.2-0.1-0.4-0.1-0.6-0.2c-0.7-0.3-1.2-0.7-1.3-0.7C15,19.2,14.9,19,15,18.8
			c0.1-0.1,0.3-0.2,0.4-0.1c0,0,0.5,0.4,1.1,0.6c0.1,0.1,0.3,0.1,0.5,0.1c0.3,0.1,0.6,0.2,0.9,0.3c-0.1-0.4-0.1-0.7-0.2-0.9
			c-0.9-0.2-1.6-0.8-1.6-0.8c-0.1-0.1-0.1-0.1-0.1-0.2c0-0.1,0-0.2,0.1-0.2c0.1-0.1,0.3-0.2,0.4,0c0,0,0.5,0.4,1,0.6
			c-0.2-0.9-0.5-1.7-0.9-2.4c-0.3-0.6-0.7-0.9-1.3-1.1c-0.4-0.1-0.7-0.1-0.7-0.1c0,0,0,0,0,0c0,0-1,0-1.7,0.8c0,0,0,0,0,0
			c-0.1,0.1-0.4,0.5-0.5,0.8c0,0.2,0,0.3,0.1,0.3c0,0,0.2,0.1,0.5-0.1c0.1-0.1,0.1-0.1,0.1-0.1c0.1-0.1,0.3-0.1,0.4,0.1
			c0.1,0.1,0.1,0.3,0,0.4c0,0-0.1,0.1-0.1,0.1c-0.1,0.1-0.4,0.4-0.7,0.7c-0.4,0.5-0.9,1.4-1.2,2.7c0,0,0,0.1,0,0.1
			c0.9-0.4,1.6-0.5,3.2,0.5c0.6,0.4,1.3,0.4,1.5,0.4h0.7c0,0,0,0,0,0c0.2,0,0.7,0,0.9-0.3c0,0,0.1-0.1,0.1-0.2
			C18,20.5,17.7,20.4,16.9,20.2"/>
		<path class="st6" d="M13.8,32.4c0.1-0.1,0.2-0.2,0.2-0.2c0,0,0-0.1-0.1-0.1C13.9,32,13.8,32,13.7,32c-0.2,0-0.3,0.1-0.6,0.3
			c-0.2,0.1-0.5,0.4-0.5,0.6c0,0.1,0,0.1,0.1,0.2c0.1,0.1,0.4,0.1,0.5,0C13.4,32.8,13.5,32.6,13.8,32.4"/>
		<path class="st6" d="M14.9,32.8c0,0,0-0.1-0.1-0.2c0,0-0.1-0.1-0.4,0.1c-0.2,0.1-0.5,0.3-0.6,0.6c0.1,0.1,0.1,0.1,0.2,0.1
			c0.3,0.1,0.6-0.2,0.7-0.3c0,0,0,0,0,0C14.7,33.1,14.9,32.9,14.9,32.8"/>
		<path class="st6" d="M11.6,31.3C11.6,31.3,11.5,31.3,11.6,31.3c-0.3,0-0.6,0.2-0.8,0.4c-0.1,0.1-0.1,0.2-0.1,0.2
			c0,0,0.1,0.1,0.3,0.1c0,0,0.1,0,0.1,0c0.1-0.3,0.2-0.4,0.4-0.6c0,0,0.1-0.1,0.1-0.1C11.7,31.3,11.6,31.3,11.6,31.3
			C11.6,31.3,11.6,31.3,11.6,31.3"/>
		<path class="st6" d="M11.7,32.3c0,0.1,0,0.2,0.3,0.3c0,0,0.1,0,0.1,0c0.1-0.3,0.3-0.5,0.7-0.8c0,0,0.1-0.1,0.2-0.1c0,0,0,0,0-0.1
			c0,0-0.1-0.1-0.2-0.1c-0.1,0-0.1,0-0.2,0c-0.2,0-0.4,0.1-0.6,0.3C11.7,32,11.7,32.2,11.7,32.3"/>
		<path class="st6" d="M18.4,31.8c0.2,0,0.3,0,0.4-0.1c0.1-0.1,0.1-0.2,0.1-0.3c-0.2-0.2-0.7-0.8-1.4-1.3c-0.3-0.2-0.6-0.4-1-0.5
			c-0.4-0.1-0.7-0.2-1-0.1c0,0,0,0,0,0c-0.1,0-0.2,0.1-0.3,0.2c-0.1,0.1-0.2,0.1-0.3,0.2c-0.3,0.2-0.8,0.3-1.1,0.3
			c-0.3,0-0.7,0-1-0.3c-0.2-0.2-0.2-0.4-0.1-0.7c0.1-0.2,0.3-0.3,0.7-0.5c0.1-0.1,0.3-0.1,0.4-0.2c0.2-0.1,0.2-0.2,0.4-0.3
			c0.1-0.1,0.3-0.2,0.5-0.4c0.1-0.1,0.2-0.1,0.3-0.2c-0.1,0-0.2,0-0.3,0c-0.5,0-0.9,0.1-1.4,0.5c-0.5,0.3-1.4,0.6-2.8,0.9
			c-1.4,0.3-3.2,0.5-5.5,0.8c0.1,0.3,0.1,0.5,0.2,0.8c0.3,0.9,0.7,1.8,1.1,2.6c0.8-0.4,2.8-1.3,4.4-2.1c0.3-0.3,0.8-0.5,1.1-0.4
			c0.1,0,0.4,0,0.6,0.2c0.3-0.1,0.5-0.1,0.7,0.1c0.3,0.1,0.4,0.3,0.4,0.4c0.3-0.1,0.6,0,0.9,0.2c0.2,0.1,0.2,0.3,0.3,0.5
			c0.3,0,0.5,0.1,0.7,0.2c0.2,0.2,0.3,0.5,0.2,0.6c0,0.1-0.1,0.2-0.1,0.3c0.2,0,0.3,0,0.4-0.1c0,0,0.1,0,0.1-0.1
			c-0.1-0.1-0.2-0.3-0.4-0.6c0-0.1-0.1-0.1-0.1-0.2c0-0.1,0-0.1,0.1-0.2c0.1-0.1,0.3-0.1,0.4,0c0.3,0.3,0.4,0.6,0.5,0.8
			c0.1,0,0.3,0,0.4-0.1c0.1-0.1,0.1-0.1,0.1-0.2c0-0.1-0.1-0.2-0.3-0.4c-0.2-0.2-0.5-0.4-0.6-0.5c-0.1,0-0.1-0.1-0.1-0.2
			c0-0.1,0-0.1,0-0.2c0-0.1,0.1-0.1,0.2-0.1c0.1,0,0.1,0,0.2,0c0,0,0.5,0.3,0.7,0.6c0.2,0.2,0.3,0.4,0.4,0.5c0.2,0,0.3-0.1,0.5-0.2
			c0,0,0.1-0.1,0.1-0.1c-0.2-0.3-0.7-0.9-1.4-1.2c-0.1,0-0.1-0.1-0.1-0.2c0-0.1,0-0.1,0-0.2c0-0.1,0.1-0.1,0.2-0.1
			c0.1,0,0.1,0,0.2,0C17.6,30.7,18.2,31.5,18.4,31.8"/>
		<path class="st6" d="M14.9,29.2c0.2-0.1,0.3-0.2,0.5-0.3c0.9-0.2,1.9,0.4,2.4,0.7c0.7,0.4,1.2,1,1.5,1.3c0,0,0,0,0,0l0,0
			c0,0,0,0,0,0c0.1,0.1,0.2,0.3,0.5,0.4c1.2,0.9,2.9,1.6,3.7,1.9c0.5-0.8,0.8-1.7,1.1-2.7c0.1-0.2,0.1-0.5,0.2-0.7
			c-1.5-0.1-3-0.4-4.1-0.7c-1.2-0.3-2.1-0.6-2.1-0.6c-0.2-0.1-0.5-0.2-0.7-0.2c-0.7-0.2-1.1-0.4-1.6-0.4c-0.1,0-0.1,0-0.2,0
			c-0.1,0-0.1,0-0.2,0h0c-0.5,0-0.8,0-1,0.2c-0.2,0.1-0.3,0.2-0.4,0.3c-0.1,0.1-0.2,0.2-0.4,0.3c-0.1,0.1-0.3,0.2-0.4,0.2
			c-0.1,0.1-0.3,0.2-0.4,0.2c0,0,0,0.1,0,0.1c0.1,0.1,0.2,0.1,0.5,0.1c0.2,0,0.6-0.1,0.9-0.3C14.7,29.3,14.8,29.3,14.9,29.2"/>
		<path class="st0" d="M36.9,19l0.9-1c0.8,0.7,1.6,1.1,2.6,1.1c0.9,0,1.4-0.4,1.4-1v0c0-0.6-0.3-0.9-1.8-1.2
			c-1.7-0.4-2.7-0.9-2.7-2.4v0c0-1.4,1.2-2.4,2.8-2.4c1.2,0,2.1,0.4,3,1L42.2,14c-0.7-0.5-1.5-0.8-2.2-0.8c-0.8,0-1.3,0.4-1.3,1v0
			c0,0.6,0.4,0.9,1.9,1.3c1.7,0.4,2.6,1,2.6,2.4v0c0,1.5-1.2,2.4-2.9,2.4C39.1,20.3,37.9,19.9,36.9,19"/>
		<path class="st0" d="M44.3,17.1L44.3,17.1c0-1.8,1.2-3.2,3-3.2c2,0,2.9,1.5,2.9,3.3c0,0.1,0,0.3,0,0.4h-4.5c0.2,1,0.9,1.6,1.8,1.6
			c0.7,0,1.2-0.3,1.7-0.7l0.8,0.7c-0.6,0.7-1.4,1.2-2.5,1.2C45.7,20.3,44.3,19,44.3,17.1 M48.9,16.7c-0.1-0.9-0.6-1.6-1.6-1.6
			c-0.9,0-1.5,0.7-1.6,1.6H48.9z"/>
		<path class="st0" d="M51.2,17.1L51.2,17.1c0-1.8,1.4-3.2,3.2-3.2c1.2,0,1.9,0.4,2.5,1.1L56,15.9c-0.4-0.5-0.9-0.8-1.6-0.8
			c-1,0-1.8,0.9-1.8,2v0c0,1.1,0.8,2,1.8,2c0.7,0,1.2-0.3,1.6-0.8l0.8,0.8c-0.6,0.7-1.3,1.2-2.5,1.2C52.6,20.3,51.2,18.9,51.2,17.1"
			/>
		<path class="st0" d="M58.1,14h1.4v1.4c0.4-0.9,1.1-1.5,2.2-1.5v1.5h-0.1c-1.2,0-2.1,0.8-2.1,2.4v2.3h-1.4V14z"/>
		<path class="st0" d="M62.2,17.1L62.2,17.1c0-1.8,1.2-3.2,3-3.2c2,0,2.9,1.5,2.9,3.3c0,0.1,0,0.3,0,0.4h-4.5c0.2,1,0.9,1.6,1.8,1.6
			c0.7,0,1.2-0.3,1.7-0.7l0.8,0.7c-0.6,0.7-1.4,1.2-2.5,1.2C63.6,20.3,62.2,19,62.2,17.1 M66.8,16.7c-0.1-0.9-0.6-1.6-1.6-1.6
			c-0.9,0-1.5,0.7-1.6,1.6H66.8z"/>
		<path class="st0" d="M69.8,18.5v-3.2H69V14h0.8v-1.7h1.4V14h1.7v1.2h-1.7v3c0,0.5,0.3,0.8,0.8,0.8c0.3,0,0.6-0.1,0.9-0.2V20
			c-0.3,0.2-0.7,0.3-1.3,0.3C70.5,20.3,69.8,19.8,69.8,18.5"/>
		<path class="st0" d="M77.9,20.2v-0.8c-0.4,0.5-1.1,0.9-2,0.9c-1.2,0-2.2-0.7-2.2-1.9v0c0-1.4,1.1-2,2.5-2c0.7,0,1.2,0.1,1.7,0.3
			v-0.1c0-0.8-0.5-1.3-1.5-1.3c-0.7,0-1.2,0.2-1.8,0.4l-0.4-1.1c0.7-0.3,1.3-0.5,2.3-0.5c1.8,0,2.7,1,2.7,2.6v3.6H77.9z M77.9,17.6
			c-0.4-0.1-0.9-0.2-1.4-0.2c-0.9,0-1.4,0.4-1.4,1v0c0,0.6,0.5,0.9,1.2,0.9c0.9,0,1.6-0.5,1.6-1.3V17.6z"/>
		<path class="st0" d="M80.9,14h1.4v1.4c0.4-0.9,1.1-1.5,2.2-1.5v1.5h-0.1c-1.2,0-2.1,0.8-2.1,2.4v2.3h-1.4V14z"/>
		<path class="st0" d="M85.6,14H87v6.1h-1.4V14z M87,11.3l1.3,0.6l-1.4,1.3h-1.1L87,11.3z"/>
		<path class="st0" d="M92.5,20.2v-0.8c-0.4,0.5-1.1,0.9-2,0.9c-1.2,0-2.2-0.7-2.2-1.9v0c0-1.4,1.1-2,2.5-2c0.7,0,1.2,0.1,1.7,0.3
			v-0.1c0-0.8-0.5-1.3-1.5-1.3c-0.7,0-1.2,0.2-1.8,0.4l-0.4-1.1c0.7-0.3,1.3-0.5,2.3-0.5c1.8,0,2.7,1,2.7,2.6v3.6H92.5z M92.6,17.6
			c-0.4-0.1-0.9-0.2-1.4-0.2c-0.9,0-1.4,0.4-1.4,1v0c0,0.6,0.5,0.9,1.2,0.9c0.9,0,1.6-0.5,1.6-1.3V17.6z"/>
		<path class="st0" d="M98.5,17.1L98.5,17.1c0-2.1,1.4-3.2,2.9-3.2c1,0,1.7,0.5,2.1,1.1v-3.3h1.4v8.5h-1.4v-1
			c-0.5,0.6-1.1,1.2-2.1,1.2C99.9,20.3,98.5,19.1,98.5,17.1 M103.5,17.1L103.5,17.1c0-1.2-0.8-2-1.8-2c-1,0-1.8,0.7-1.8,2v0
			c0,1.2,0.8,2,1.8,2C102.7,19.1,103.5,18.3,103.5,17.1"/>
		<path class="st0" d="M106.2,17.1L106.2,17.1c0-1.8,1.2-3.2,3-3.2c2,0,2.9,1.5,2.9,3.3c0,0.1,0,0.3,0,0.4h-4.5
			c0.2,1,0.9,1.6,1.8,1.6c0.7,0,1.2-0.3,1.7-0.7l0.8,0.7c-0.6,0.7-1.4,1.2-2.5,1.2C107.6,20.3,106.2,19,106.2,17.1 M110.7,16.7
			c-0.1-0.9-0.6-1.6-1.6-1.6c-0.9,0-1.5,0.7-1.6,1.6H110.7z"/>
		<polygon class="st0" points="117,12 118.5,12 121,15.9 123.5,12 125,12 125,20.2 123.6,20.2 123.6,14.3 121,18.2 120.9,18.2 
			118.4,14.3 118.4,20.2 117,20.2 		"/>
		<path class="st0" d="M126.5,17.1L126.5,17.1c0-1.8,1.4-3.2,3.3-3.2c1.9,0,3.3,1.4,3.3,3.2v0c0,1.7-1.4,3.2-3.3,3.2
			C127.9,20.3,126.5,18.9,126.5,17.1 M131.6,17.1L131.6,17.1c0-1.1-0.8-2-1.9-2c-1.1,0-1.9,0.9-1.9,2v0c0,1.1,0.8,2,1.9,2
			C130.9,19.1,131.6,18.2,131.6,17.1"/>
		<path class="st0" d="M134,17.1L134,17.1c0-2.1,1.4-3.2,2.9-3.2c1,0,1.7,0.5,2.1,1.1v-3.3h1.4v8.5H139v-1c-0.5,0.6-1.1,1.2-2.1,1.2
			C135.4,20.3,134,19.1,134,17.1 M139,17.1L139,17.1c0-1.2-0.8-2-1.8-2c-1,0-1.8,0.7-1.8,2v0c0,1.2,0.8,2,1.8,2
			C138.2,19.1,139,18.3,139,17.1"/>
		<path class="st0" d="M141.7,17.1L141.7,17.1c0-1.8,1.2-3.2,3-3.2c2,0,2.9,1.5,2.9,3.3c0,0.1,0,0.3,0,0.4h-4.5
			c0.2,1,0.9,1.6,1.8,1.6c0.7,0,1.2-0.3,1.7-0.7l0.8,0.7c-0.6,0.7-1.4,1.2-2.5,1.2C143.1,20.3,141.7,19,141.7,17.1 M146.2,16.7
			c-0.1-0.9-0.6-1.6-1.6-1.6c-0.9,0-1.5,0.7-1.6,1.6H146.2z"/>
		<path class="st0" d="M148.9,14h1.4v1.4c0.4-0.9,1.1-1.5,2.2-1.5v1.5h-0.1c-1.2,0-2.1,0.8-2.1,2.4v2.3h-1.4V14z"/>
		<path class="st0" d="M153.6,14h1.4v1c0.4-0.6,1-1.1,1.9-1.1c1.4,0,2.2,0.9,2.2,2.4v3.9h-1.4v-3.5c0-1-0.5-1.5-1.3-1.5
			c-0.8,0-1.4,0.6-1.4,1.5v3.5h-1.4V14z"/>
		<path class="st0" d="M160.8,11.7h1.5v1.3h-1.5V11.7z M160.8,14h1.4v6.1h-1.4V14z"/>
		<polygon class="st0" points="163.7,19.2 167.2,15.2 163.8,15.2 163.8,14 169,14 169,15 165.5,19 169,19 169,20.2 163.7,20.2 		"/>
		<path class="st0" d="M174.1,20.2v-0.8c-0.4,0.5-1.1,0.9-2,0.9c-1.2,0-2.2-0.7-2.2-1.9v0c0-1.4,1.1-2,2.5-2c0.7,0,1.2,0.1,1.7,0.3
			v-0.1c0-0.8-0.5-1.3-1.5-1.3c-0.7,0-1.2,0.2-1.8,0.4l-0.4-1.1c0.7-0.3,1.3-0.5,2.3-0.5c1.8,0,2.7,1,2.7,2.6v3.6H174.1z
			 M174.1,17.6c-0.4-0.1-0.9-0.2-1.4-0.2c-0.9,0-1.4,0.4-1.4,1v0c0,0.6,0.5,0.9,1.2,0.9c0.9,0,1.6-0.5,1.6-1.3V17.6z"/>
		<path class="st0" d="M176.7,17.1L176.7,17.1c0-1.8,1.3-3.2,3.2-3.2c1.2,0,1.9,0.4,2.5,1.1l-0.9,0.9c-0.4-0.5-0.9-0.8-1.6-0.8
			c-1,0-1.8,0.9-1.8,2v0c0,1.1,0.8,2,1.8,2c0.7,0,1.2-0.3,1.6-0.8l0.8,0.8c-0.6,0.7-1.3,1.2-2.5,1.2
			C178.1,20.3,176.7,18.9,176.7,17.1"/>
		<path class="st0" d="M183.6,11.7h1.5v1.3h-1.5V11.7z M183.7,14h1.4v6.1h-1.4V14z"/>
		<path class="st0" d="M186.5,17.1L186.5,17.1c0-1.8,1.4-3.2,3.3-3.2c1.9,0,3.3,1.4,3.3,3.2v0c0,1.7-1.4,3.2-3.3,3.2
			C187.9,20.3,186.5,18.9,186.5,17.1 M191.6,17.1L191.6,17.1c0-1.1-0.8-2-1.9-2c-1.1,0-1.9,0.9-1.9,2v0c0,1.1,0.8,2,1.9,2
			C190.9,19.1,191.6,18.2,191.6,17.1 M190.4,11.3l1.3,0.6l-1.4,1.3h-1.1L190.4,11.3z"/>
		<path class="st0" d="M194.3,14h1.4v1c0.4-0.6,1-1.1,1.9-1.1c1.4,0,2.2,0.9,2.2,2.4v3.9h-1.4v-3.5c0-1-0.5-1.5-1.3-1.5
			c-0.8,0-1.4,0.6-1.4,1.5v3.5h-1.4V14z"/>
	</g>
</g>
<g id="Layer_2">
</g>
</svg>
